%TF.GenerationSoftware,KiCad,Pcbnew,(5.99.0-7212-gef75ce9035)*%
%TF.CreationDate,2021-04-24T18:58:59-07:00*%
%TF.ProjectId,nikon_ctrl,6e696b6f-6e5f-4637-9472-6c2e6b696361,rev?*%
%TF.SameCoordinates,Original*%
%TF.FileFunction,Copper,L1,Top*%
%TF.FilePolarity,Positive*%
%FSLAX46Y46*%
G04 Gerber Fmt 4.6, Leading zero omitted, Abs format (unit mm)*
G04 Created by KiCad (PCBNEW (5.99.0-7212-gef75ce9035)) date 2021-04-24 18:58:59*
%MOMM*%
%LPD*%
G01*
G04 APERTURE LIST*
G04 Aperture macros list*
%AMRoundRect*
0 Rectangle with rounded corners*
0 $1 Rounding radius*
0 $2 $3 $4 $5 $6 $7 $8 $9 X,Y pos of 4 corners*
0 Add a 4 corners polygon primitive as box body*
4,1,4,$2,$3,$4,$5,$6,$7,$8,$9,$2,$3,0*
0 Add four circle primitives for the rounded corners*
1,1,$1+$1,$2,$3,0*
1,1,$1+$1,$4,$5,0*
1,1,$1+$1,$6,$7,0*
1,1,$1+$1,$8,$9,0*
0 Add four rect primitives between the rounded corners*
20,1,$1+$1,$2,$3,$4,$5,0*
20,1,$1+$1,$4,$5,$6,$7,0*
20,1,$1+$1,$6,$7,$8,$9,0*
20,1,$1+$1,$8,$9,$2,$3,0*%
G04 Aperture macros list end*
%TA.AperFunction,SMDPad,CuDef*%
%ADD10R,1.000000X0.800000*%
%TD*%
%TA.AperFunction,SMDPad,CuDef*%
%ADD11R,0.950000X1.450000*%
%TD*%
%TA.AperFunction,SMDPad,CuDef*%
%ADD12R,2.600000X1.800000*%
%TD*%
%TA.AperFunction,SMDPad,CuDef*%
%ADD13C,1.500000*%
%TD*%
%TA.AperFunction,SMDPad,CuDef*%
%ADD14RoundRect,0.250000X-0.325000X-0.450000X0.325000X-0.450000X0.325000X0.450000X-0.325000X0.450000X0*%
%TD*%
%TA.AperFunction,ComponentPad*%
%ADD15O,1.700000X1.700000*%
%TD*%
%TA.AperFunction,ComponentPad*%
%ADD16R,1.700000X1.700000*%
%TD*%
%TA.AperFunction,SMDPad,CuDef*%
%ADD17RoundRect,0.250000X0.325000X0.450000X-0.325000X0.450000X-0.325000X-0.450000X0.325000X-0.450000X0*%
%TD*%
%TA.AperFunction,SMDPad,CuDef*%
%ADD18R,0.900000X0.800000*%
%TD*%
%TA.AperFunction,SMDPad,CuDef*%
%ADD19RoundRect,0.250000X-0.250000X-0.475000X0.250000X-0.475000X0.250000X0.475000X-0.250000X0.475000X0*%
%TD*%
%TA.AperFunction,SMDPad,CuDef*%
%ADD20R,1.800000X0.700000*%
%TD*%
%TA.AperFunction,ComponentPad*%
%ADD21O,4.000000X1.600000*%
%TD*%
%TA.AperFunction,SMDPad,CuDef*%
%ADD22RoundRect,0.250000X0.250000X0.475000X-0.250000X0.475000X-0.250000X-0.475000X0.250000X-0.475000X0*%
%TD*%
%TA.AperFunction,SMDPad,CuDef*%
%ADD23R,0.300000X0.300000*%
%TD*%
%TA.AperFunction,SMDPad,CuDef*%
%ADD24RoundRect,0.075000X-0.075000X0.350000X-0.075000X-0.350000X0.075000X-0.350000X0.075000X0.350000X0*%
%TD*%
%TA.AperFunction,SMDPad,CuDef*%
%ADD25RoundRect,0.075000X-0.350000X0.075000X-0.350000X-0.075000X0.350000X-0.075000X0.350000X0.075000X0*%
%TD*%
%TA.AperFunction,SMDPad,CuDef*%
%ADD26R,2.100000X2.100000*%
%TD*%
%TA.AperFunction,ComponentPad*%
%ADD27C,3.500000*%
%TD*%
%TA.AperFunction,SMDPad,CuDef*%
%ADD28R,2.400000X2.950000*%
%TD*%
%TA.AperFunction,SMDPad,CuDef*%
%ADD29R,2.400000X2.650000*%
%TD*%
%TA.AperFunction,SMDPad,CuDef*%
%ADD30RoundRect,0.250000X-0.450000X0.325000X-0.450000X-0.325000X0.450000X-0.325000X0.450000X0.325000X0*%
%TD*%
%TA.AperFunction,SMDPad,CuDef*%
%ADD31RoundRect,0.250000X0.475000X-0.250000X0.475000X0.250000X-0.475000X0.250000X-0.475000X-0.250000X0*%
%TD*%
%TA.AperFunction,ViaPad*%
%ADD32C,0.800000*%
%TD*%
%TA.AperFunction,Conductor*%
%ADD33C,0.250000*%
%TD*%
%TA.AperFunction,Conductor*%
%ADD34C,0.400000*%
%TD*%
%TA.AperFunction,Conductor*%
%ADD35C,0.300000*%
%TD*%
G04 APERTURE END LIST*
D10*
%TO.P,Q2,4,C*%
%TO.N,Net-(J2-Pad3)*%
X150834460Y-109682280D03*
%TO.P,Q2,3,E*%
%TO.N,Net-(J2-Pad1)*%
X150834460Y-112222280D03*
%TO.P,Q2,2,K*%
%TO.N,Net-(Q2-Pad2)*%
X144334460Y-112222280D03*
%TO.P,Q2,1,A*%
%TO.N,+3V3*%
X144334460Y-109682280D03*
%TD*%
%TO.P,Q1,4,C*%
%TO.N,Net-(J2-Pad2)*%
X150834460Y-103789480D03*
%TO.P,Q1,3,E*%
%TO.N,Net-(J2-Pad1)*%
X150834460Y-106329480D03*
%TO.P,Q1,2,K*%
%TO.N,Net-(Q1-Pad2)*%
X144334460Y-106329480D03*
%TO.P,Q1,1,A*%
%TO.N,+3V3*%
X144334460Y-103789480D03*
%TD*%
D11*
%TO.P,LED1,2*%
%TO.N,Net-(LED1-Pad2)*%
X153489620Y-101828600D03*
%TO.P,LED1,1*%
%TO.N,GND*%
X155389620Y-101828600D03*
%TD*%
D12*
%TO.P,C2,2*%
%TO.N,GND*%
X133745800Y-113639600D03*
%TO.P,C2,1*%
%TO.N,VCC*%
X129245800Y-113639600D03*
%TD*%
D13*
%TO.P,3V3,1,1*%
%TO.N,+3V3*%
X134510780Y-104152700D03*
%TD*%
%TO.P,GND1,1,1*%
%TO.N,GND*%
X130581400Y-108643420D03*
%TD*%
D14*
%TO.P,R13,2*%
%TO.N,Net-(LED1-Pad2)*%
X147895420Y-101828600D03*
%TO.P,R13,1*%
%TO.N,+3V3*%
X145845420Y-101828600D03*
%TD*%
D15*
%TO.P,J3,3,Pin_3*%
%TO.N,GND*%
X141912340Y-114406680D03*
%TO.P,J3,2,Pin_2*%
%TO.N,TXD*%
X144452340Y-114406680D03*
D16*
%TO.P,J3,1,Pin_1*%
%TO.N,RXD*%
X146992340Y-114406680D03*
%TD*%
D17*
%TO.P,R5,1*%
%TO.N,+3V3*%
X142612019Y-108020701D03*
%TO.P,R5,2*%
%TO.N,Net-(Q3-Pad3)*%
X140562019Y-108020701D03*
%TD*%
D18*
%TO.P,Q3,1,B*%
%TO.N,Net-(Q3-Pad1)*%
X136754360Y-109984500D03*
%TO.P,Q3,2,E*%
%TO.N,GND*%
X136754360Y-111884500D03*
%TO.P,Q3,3,C*%
%TO.N,Net-(Q3-Pad3)*%
X138754360Y-110934500D03*
%TD*%
D17*
%TO.P,R6,1*%
%TO.N,+3V3*%
X142271860Y-102153720D03*
%TO.P,R6,2*%
%TO.N,Net-(Q4-Pad3)*%
X140221860Y-102153720D03*
%TD*%
%TO.P,L1,1*%
%TO.N,VCC*%
X126191120Y-114579400D03*
%TO.P,L1,2*%
%TO.N,VBUS*%
X124141120Y-114579400D03*
%TD*%
%TO.P,R7,1*%
%TO.N,Net-(Q5-Pad2)*%
X138675220Y-113880900D03*
%TO.P,R7,2*%
%TO.N,GND*%
X136625220Y-113880900D03*
%TD*%
D19*
%TO.P,C3,1*%
%TO.N,VCC*%
X124609820Y-112212120D03*
%TO.P,C3,2*%
%TO.N,GND*%
X126509820Y-112212120D03*
%TD*%
D20*
%TO.P,J1,1,VBUS*%
%TO.N,VBUS*%
X119074740Y-111176060D03*
%TO.P,J1,2,D-*%
%TO.N,USB_DM*%
X119074740Y-109176060D03*
%TO.P,J1,3,D+*%
%TO.N,USB_DP*%
X119074740Y-107176060D03*
%TO.P,J1,4,GND*%
%TO.N,GND*%
X119074740Y-105176060D03*
%TO.P,J1,5,SSRX-*%
%TO.N,Net-(J1-Pad5)*%
X119074740Y-104176060D03*
%TO.P,J1,6,SSRX+*%
%TO.N,Net-(J1-Pad6)*%
X119074740Y-106176060D03*
%TO.P,J1,7,DRAIN*%
%TO.N,GND*%
X119074740Y-108176060D03*
%TO.P,J1,8,SSTX-*%
%TO.N,Net-(J1-Pad8)*%
X119074740Y-110176060D03*
%TO.P,J1,9,SSTX+*%
%TO.N,Net-(J1-Pad9)*%
X119074740Y-112176060D03*
D21*
%TO.P,J1,10,SHIELD*%
%TO.N,GND*%
X116624740Y-114026060D03*
X116624740Y-102326060D03*
%TD*%
D14*
%TO.P,R1,1*%
%TO.N,Net-(Q3-Pad1)*%
X127907372Y-104147620D03*
%TO.P,R1,2*%
%TO.N,RTS*%
X129957372Y-104147620D03*
%TD*%
D22*
%TO.P,C1,1*%
%TO.N,VBUS*%
X122316280Y-114551460D03*
%TO.P,C1,2*%
%TO.N,GND*%
X120416280Y-114551460D03*
%TD*%
D17*
%TO.P,R8,1*%
%TO.N,Net-(Q6-Pad2)*%
X138708240Y-108033820D03*
%TO.P,R8,2*%
%TO.N,GND*%
X136658240Y-108033820D03*
%TD*%
D14*
%TO.P,R3,1*%
%TO.N,Net-(Q4-Pad1)*%
X127907372Y-102029260D03*
%TO.P,R3,2*%
%TO.N,RTS*%
X129957372Y-102029260D03*
%TD*%
D17*
%TO.P,R2,1*%
%TO.N,Net-(Q3-Pad1)*%
X125950386Y-104147620D03*
%TO.P,R2,2*%
%TO.N,CTS*%
X123900386Y-104147620D03*
%TD*%
D18*
%TO.P,Q5,1,B*%
%TO.N,Net-(Q3-Pad3)*%
X140198600Y-109984500D03*
%TO.P,Q5,2,E*%
%TO.N,Net-(Q5-Pad2)*%
X140198600Y-111884500D03*
%TO.P,Q5,3,C*%
%TO.N,Net-(Q2-Pad2)*%
X142198600Y-110934500D03*
%TD*%
D23*
%TO.P,U2,1,D+*%
%TO.N,USB_DP*%
X120971760Y-107810820D03*
%TO.P,U2,2,D-*%
%TO.N,USB_DM*%
X120971760Y-108510820D03*
%TO.P,U2,3,GND*%
%TO.N,GND*%
X121821760Y-108160820D03*
%TD*%
D24*
%TO.P,U1,1,VCCIO*%
%TO.N,+3V3*%
X126760880Y-106246380D03*
%TO.P,U1,2,RXD*%
%TO.N,RXD*%
X126110880Y-106246380D03*
%TO.P,U1,3,GND*%
%TO.N,GND*%
X125460880Y-106246380D03*
%TO.P,U1,4,~CTS*%
%TO.N,CTS*%
X124810880Y-106246380D03*
D25*
%TO.P,U1,5,CBUS2*%
%TO.N,Net-(U1-Pad5)*%
X123835880Y-107221380D03*
%TO.P,U1,6,USBDP*%
%TO.N,USB_DP*%
X123835880Y-107871380D03*
%TO.P,U1,7,USBDM*%
%TO.N,USB_DM*%
X123835880Y-108521380D03*
%TO.P,U1,8,3V3OUT*%
%TO.N,+3V3*%
X123835880Y-109171380D03*
D24*
%TO.P,U1,9,~RESET*%
X124810880Y-110146380D03*
%TO.P,U1,10,VCC*%
%TO.N,VCC*%
X125460880Y-110146380D03*
%TO.P,U1,11,CBUS1*%
%TO.N,Net-(U1-Pad11)*%
X126110880Y-110146380D03*
%TO.P,U1,12,CBUS0*%
%TO.N,Net-(U1-Pad12)*%
X126760880Y-110146380D03*
D25*
%TO.P,U1,13,GND*%
%TO.N,GND*%
X127735880Y-109171380D03*
%TO.P,U1,14,CBUS3*%
%TO.N,Net-(U1-Pad14)*%
X127735880Y-108521380D03*
%TO.P,U1,15,TXD*%
%TO.N,TXD*%
X127735880Y-107871380D03*
%TO.P,U1,16,~RTS*%
%TO.N,RTS*%
X127735880Y-107221380D03*
D26*
%TO.P,U1,17,GND*%
%TO.N,GND*%
X125785880Y-108196380D03*
%TD*%
D27*
%TO.P,H1,1*%
%TO.N,N/C*%
X158912560Y-102864920D03*
%TD*%
D17*
%TO.P,R4,1*%
%TO.N,Net-(Q4-Pad1)*%
X125950386Y-102029260D03*
%TO.P,R4,2*%
%TO.N,CTS*%
X123900386Y-102029260D03*
%TD*%
D18*
%TO.P,Q4,1,B*%
%TO.N,Net-(Q4-Pad1)*%
X136723880Y-104188220D03*
%TO.P,Q4,2,E*%
%TO.N,GND*%
X136723880Y-106088220D03*
%TO.P,Q4,3,C*%
%TO.N,Net-(Q4-Pad3)*%
X138723880Y-105138220D03*
%TD*%
%TO.P,Q6,1,B*%
%TO.N,Net-(Q4-Pad3)*%
X140170660Y-104185680D03*
%TO.P,Q6,2,E*%
%TO.N,Net-(Q6-Pad2)*%
X140170660Y-106085680D03*
%TO.P,Q6,3,C*%
%TO.N,Net-(Q1-Pad2)*%
X142170660Y-105135680D03*
%TD*%
D27*
%TO.P,H2,1*%
%TO.N,N/C*%
X156044900Y-113398300D03*
%TD*%
D28*
%TO.P,J2,1*%
%TO.N,Net-(J2-Pad1)*%
X163676860Y-104903600D03*
D29*
%TO.P,J2,2*%
%TO.N,Net-(J2-Pad2)*%
X153976860Y-104753600D03*
D28*
%TO.P,J2,3*%
%TO.N,Net-(J2-Pad3)*%
X160976860Y-111453600D03*
%TD*%
D30*
%TO.P,R12,1*%
%TO.N,+3V3*%
X121818400Y-102050740D03*
%TO.P,R12,2*%
%TO.N,CTS*%
X121818400Y-104100740D03*
%TD*%
%TO.P,R11,1*%
%TO.N,+3V3*%
X132024120Y-102040580D03*
%TO.P,R11,2*%
%TO.N,RTS*%
X132024120Y-104090580D03*
%TD*%
D31*
%TO.P,C4,1*%
%TO.N,GND*%
X134330440Y-108033860D03*
%TO.P,C4,2*%
%TO.N,+3V3*%
X134330440Y-106133860D03*
%TD*%
D32*
%TO.N,GND*%
X141236700Y-112951260D03*
X151693880Y-114449860D03*
X156161740Y-103979980D03*
%TO.N,+3V3*%
X144688560Y-101828600D03*
%TO.N,GND*%
X133197600Y-107515660D03*
X136723880Y-106920540D03*
X120771920Y-113621820D03*
%TO.N,+3V3*%
X143562869Y-108971551D03*
X143860520Y-102656640D03*
%TO.N,GND*%
X115239800Y-104561640D03*
X115239800Y-108176060D03*
X115775740Y-112052100D03*
X131427220Y-110035340D03*
X134713980Y-111066580D03*
X129118360Y-110027720D03*
X131008120Y-107304840D03*
X131513580Y-114294920D03*
X122369580Y-108163360D03*
X116570760Y-108163360D03*
%TO.N,+3V3*%
X123631960Y-110208060D03*
%TO.N,TXD*%
X128811020Y-108028740D03*
%TO.N,+3V3*%
X133068060Y-101589840D03*
X126923800Y-105318560D03*
%TO.N,RXD*%
X124945140Y-105166160D03*
%TO.N,RTS*%
X128516380Y-107007660D03*
X130642360Y-103372920D03*
%TO.N,+3V3*%
X120909080Y-102039420D03*
%TD*%
D33*
%TO.N,GND*%
X141236700Y-112951260D02*
X141236700Y-113731040D01*
X142781020Y-109796580D02*
X141551660Y-109796580D01*
X151693880Y-114449860D02*
X150276560Y-114449860D01*
X156161740Y-102600720D02*
X156161740Y-103979980D01*
X155389620Y-101828600D02*
X156161740Y-102600720D01*
X141236700Y-110111540D02*
X141236700Y-112951260D01*
X141551660Y-109796580D02*
X141236700Y-110111540D01*
X146817080Y-110990380D02*
X143974820Y-110990380D01*
X143974820Y-110990380D02*
X142781020Y-109796580D01*
X150276560Y-114449860D02*
X146817080Y-110990380D01*
X141236700Y-113731040D02*
X141912340Y-114406680D01*
%TO.N,+3V3*%
X145845420Y-101828600D02*
X144688560Y-101828600D01*
X144688560Y-101828600D02*
X143860520Y-102656640D01*
%TO.N,Net-(LED1-Pad2)*%
X147895420Y-101828600D02*
X153489620Y-101828600D01*
%TO.N,GND*%
X133197600Y-107515660D02*
X133812240Y-107515660D01*
X133812240Y-107515660D02*
X134330440Y-108033860D01*
X136723880Y-106920540D02*
X136723880Y-107968180D01*
%TO.N,Net-(Q4-Pad1)*%
X128418421Y-100864839D02*
X136092099Y-100864839D01*
X127907372Y-101375888D02*
X128418421Y-100864839D01*
X136723880Y-101496620D02*
X136723880Y-101511860D01*
X127907372Y-102029260D02*
X127907372Y-101375888D01*
X136092099Y-100864839D02*
X136723880Y-101496620D01*
%TO.N,+3V3*%
X143562869Y-108971551D02*
X142612019Y-108020701D01*
X143860520Y-102656640D02*
X144334460Y-103130580D01*
X134330440Y-104866440D02*
X134330440Y-106133860D01*
%TO.N,GND*%
X115239800Y-104561640D02*
X115239800Y-108176060D01*
X115239800Y-108176060D02*
X115239800Y-112641120D01*
X131427220Y-110035340D02*
X133745800Y-112353920D01*
X128958340Y-115191540D02*
X133675120Y-115191540D01*
X121469230Y-115604410D02*
X128545470Y-115604410D01*
X128545470Y-115604410D02*
X128958340Y-115191540D01*
X133675120Y-115191540D02*
X133745800Y-115120860D01*
X133745800Y-115120860D02*
X133745800Y-113639600D01*
%TO.N,VCC*%
X129245800Y-113639600D02*
X128306000Y-114579400D01*
D34*
X126191120Y-114579400D02*
X128306000Y-114579400D01*
D33*
%TO.N,GND*%
X117579738Y-108176060D02*
X117292120Y-108176060D01*
X117975120Y-105176060D02*
X117454680Y-104655620D01*
X119074740Y-105176060D02*
X117975120Y-105176060D01*
X117454680Y-104655620D02*
X117454680Y-103156000D01*
X117454680Y-103156000D02*
X116624740Y-102326060D01*
X115316000Y-103634800D02*
X115316000Y-103939860D01*
X115316000Y-103939860D02*
X115239800Y-104016060D01*
X117193060Y-113457740D02*
X117193060Y-112194340D01*
X116624740Y-114026060D02*
X117193060Y-113457740D01*
%TO.N,USB_DM*%
X123835880Y-108521380D02*
X123084562Y-108521380D01*
X123084562Y-108521380D02*
X122717581Y-108888361D01*
X121349301Y-108888361D02*
X120971760Y-108510820D01*
X122717581Y-108888361D02*
X121349301Y-108888361D01*
%TO.N,USB_DP*%
X123835880Y-107871380D02*
X123150602Y-107871380D01*
X123150602Y-107871380D02*
X122717581Y-107438359D01*
X122717581Y-107438359D02*
X121344221Y-107438359D01*
X121344221Y-107438359D02*
X120971760Y-107810820D01*
%TO.N,USB_DM*%
X119074740Y-109176060D02*
X120306520Y-109176060D01*
X120306520Y-109176060D02*
X120971760Y-108510820D01*
%TO.N,USB_DP*%
X119074740Y-107176060D02*
X120337000Y-107176060D01*
X120337000Y-107176060D02*
X120971760Y-107810820D01*
%TO.N,GND*%
X121821760Y-108160820D02*
X122367040Y-108160820D01*
X122367040Y-108160820D02*
X122369580Y-108163360D01*
%TO.N,+3V3*%
X123835880Y-110004140D02*
X123631960Y-110208060D01*
X123835880Y-109171380D02*
X123835880Y-110004140D01*
%TO.N,TXD*%
X128653660Y-107871380D02*
X128811020Y-108028740D01*
X127735880Y-107871380D02*
X128653660Y-107871380D01*
%TO.N,+3V3*%
X132474860Y-101589840D02*
X132024120Y-102040580D01*
X126760880Y-106246380D02*
X126760880Y-105481480D01*
X126760880Y-105481480D02*
X126923800Y-105318560D01*
X133068060Y-101589840D02*
X132474860Y-101589840D01*
%TO.N,RXD*%
X126110880Y-106246380D02*
X126110880Y-105905678D01*
X125299527Y-105094325D02*
X124910008Y-105094325D01*
X126110880Y-105905678D02*
X125299527Y-105094325D01*
%TO.N,+3V3*%
X126760880Y-106246380D02*
X126760880Y-105496720D01*
%TO.N,RTS*%
X128302660Y-107221380D02*
X128516380Y-107007660D01*
X130642360Y-103462632D02*
X129957372Y-104147620D01*
X127735880Y-107221380D02*
X128302660Y-107221380D01*
X130642360Y-103372920D02*
X130642360Y-103462632D01*
%TO.N,+3V3*%
X120909080Y-102039420D02*
X121807080Y-102039420D01*
X121807080Y-102039420D02*
X121818400Y-102050740D01*
%TO.N,GND*%
X126509820Y-112212120D02*
X127226100Y-111495840D01*
X127226100Y-111495840D02*
X131602040Y-111495840D01*
X131602040Y-111495840D02*
X133745800Y-113639600D01*
D34*
%TO.N,VCC*%
X126191120Y-114579400D02*
X126191120Y-113793420D01*
X126191120Y-113793420D02*
X124609820Y-112212120D01*
D35*
X125460880Y-110146380D02*
X125460880Y-111361060D01*
X125460880Y-111361060D02*
X124609820Y-112212120D01*
D33*
%TO.N,GND*%
X120416280Y-114551460D02*
X121469230Y-115604410D01*
X133745800Y-114602940D02*
X133745800Y-113639600D01*
X127735880Y-109171380D02*
X130563260Y-109171380D01*
X130563260Y-109171380D02*
X131427220Y-110035340D01*
X133745800Y-112353920D02*
X133745800Y-113639600D01*
%TO.N,Net-(Q4-Pad3)*%
X140221860Y-102153720D02*
X140221860Y-104134480D01*
X140221860Y-104134480D02*
X140170660Y-104185680D01*
%TO.N,+3V3*%
X142271860Y-102153720D02*
X143357600Y-102153720D01*
X143357600Y-102153720D02*
X143860520Y-102656640D01*
X144334460Y-103130580D02*
X144334460Y-103789480D01*
X132024120Y-102040580D02*
X133668660Y-102040580D01*
X133668660Y-102040580D02*
X134330440Y-102702360D01*
X134330440Y-102702360D02*
X134330440Y-104866440D01*
%TO.N,GND*%
X136658240Y-108033820D02*
X137529361Y-108904941D01*
X137529361Y-108904941D02*
X137529361Y-111109499D01*
X137529361Y-111109499D02*
X136754360Y-111884500D01*
%TO.N,+3V3*%
X123835880Y-109171380D02*
X123835880Y-109685540D01*
X123835880Y-109685540D02*
X124296720Y-110146380D01*
X124296720Y-110146380D02*
X124810880Y-110146380D01*
%TO.N,GND*%
X125460880Y-106246380D02*
X125460880Y-107871380D01*
X125460880Y-107871380D02*
X125785880Y-108196380D01*
X127735880Y-109171380D02*
X126760880Y-109171380D01*
X126760880Y-109171380D02*
X125785880Y-108196380D01*
X120416280Y-114551460D02*
X119890880Y-114026060D01*
X119890880Y-114026060D02*
X116624740Y-114026060D01*
X116624740Y-102326060D02*
X115316000Y-103634800D01*
X115239800Y-104016060D02*
X115239800Y-104561640D01*
X115239800Y-112641120D02*
X116624740Y-114026060D01*
X119074740Y-108176060D02*
X117579738Y-108176060D01*
X115749739Y-113151059D02*
X116624740Y-114026060D01*
%TO.N,Net-(Q3-Pad1)*%
X131564380Y-105755440D02*
X128112520Y-105755440D01*
X127907372Y-105550292D02*
X127907372Y-104147620D01*
X132280660Y-108666280D02*
X132280660Y-106471720D01*
X136088920Y-109319060D02*
X132933440Y-109319060D01*
X136754360Y-109984500D02*
X136088920Y-109319060D01*
X132933440Y-109319060D02*
X132280660Y-108666280D01*
X132280660Y-106471720D02*
X131564380Y-105755440D01*
X128112520Y-105755440D02*
X127907372Y-105550292D01*
%TO.N,Net-(Q4-Pad1)*%
X127907372Y-102029260D02*
X127907372Y-101347948D01*
X136723880Y-101511860D02*
X136723880Y-104188220D01*
%TO.N,CTS*%
X121818400Y-104100740D02*
X123853506Y-104100740D01*
X123853506Y-104100740D02*
X123900386Y-104147620D01*
X123900386Y-104147620D02*
X123900386Y-105335886D01*
X123900386Y-105335886D02*
X124810880Y-106246380D01*
X123900386Y-102029260D02*
X123900386Y-104147620D01*
%TO.N,Net-(Q3-Pad1)*%
X125950386Y-104147620D02*
X127907372Y-104147620D01*
%TO.N,Net-(Q4-Pad1)*%
X125950386Y-102029260D02*
X127907372Y-102029260D01*
%TO.N,RTS*%
X129957372Y-104147620D02*
X131967080Y-104147620D01*
X131967080Y-104147620D02*
X132024120Y-104090580D01*
X129957372Y-102029260D02*
X129957372Y-104147620D01*
D34*
%TO.N,VBUS*%
X119786654Y-111178340D02*
X121325640Y-111178340D01*
D33*
X119074740Y-111176060D02*
X119784374Y-111176060D01*
X119784374Y-111176060D02*
X119786654Y-111178340D01*
D34*
X121325640Y-111178340D02*
X122316280Y-112168980D01*
X122316280Y-112168980D02*
X122316280Y-114551460D01*
D33*
%TO.N,GND*%
X126191120Y-112584160D02*
X126253280Y-112522000D01*
D34*
%TO.N,VBUS*%
X122316280Y-114551460D02*
X124113180Y-114551460D01*
D33*
X124113180Y-114551460D02*
X124141120Y-114579400D01*
%TO.N,GND*%
X136723880Y-106088220D02*
X136723880Y-106920540D01*
X136723880Y-107968180D02*
X136658240Y-108033820D01*
X133745800Y-113639600D02*
X133987100Y-113880900D01*
X133987100Y-113880900D02*
X136625220Y-113880900D01*
X136754360Y-111884500D02*
X136754360Y-113751760D01*
X136754360Y-113751760D02*
X136625220Y-113880900D01*
X134330440Y-108033860D02*
X136658200Y-108033860D01*
X136658200Y-108033860D02*
X136658240Y-108033820D01*
%TO.N,Net-(Q4-Pad3)*%
X140170660Y-104185680D02*
X140193920Y-104162420D01*
%TO.N,Net-(Q6-Pad2)*%
X138708240Y-108033820D02*
X138708240Y-107548100D01*
X138708240Y-107548100D02*
X140170660Y-106085680D01*
%TO.N,Net-(Q4-Pad3)*%
X138723880Y-105138220D02*
X139218120Y-105138220D01*
X139218120Y-105138220D02*
X140170660Y-104185680D01*
%TO.N,+3V3*%
X144334460Y-103726100D02*
X144334460Y-103789480D01*
X144334460Y-109682280D02*
X144273598Y-109682280D01*
X144273598Y-109682280D02*
X143562869Y-108971551D01*
%TO.N,Net-(Q3-Pad3)*%
X140562019Y-108020701D02*
X140562019Y-109621081D01*
X140562019Y-109621081D02*
X140198600Y-109984500D01*
%TO.N,Net-(Q5-Pad2)*%
X138675220Y-113880900D02*
X138675220Y-113407880D01*
X138675220Y-113407880D02*
X140198600Y-111884500D01*
%TO.N,Net-(Q3-Pad3)*%
X140198600Y-109984500D02*
X139704360Y-109984500D01*
X139704360Y-109984500D02*
X138754360Y-110934500D01*
%TO.N,Net-(Q1-Pad2)*%
X142170660Y-105135680D02*
X143140660Y-105135680D01*
X143140660Y-105135680D02*
X144334460Y-106329480D01*
%TO.N,Net-(Q2-Pad2)*%
X142198600Y-110934500D02*
X143486380Y-112222280D01*
X143486380Y-112222280D02*
X144334460Y-112222280D01*
%TO.N,Net-(J2-Pad1)*%
X154823160Y-107472480D02*
X155790900Y-106504740D01*
X150834460Y-106329480D02*
X151977460Y-107472480D01*
X151977460Y-107472480D02*
X154823160Y-107472480D01*
X155790900Y-106504740D02*
X162075720Y-106504740D01*
X162075720Y-106504740D02*
X163676860Y-104903600D01*
X150098760Y-112222280D02*
X149372320Y-111495840D01*
X150834460Y-112222280D02*
X150098760Y-112222280D01*
X149372320Y-111495840D02*
X149372320Y-107791620D01*
X149372320Y-107791620D02*
X150834460Y-106329480D01*
%TO.N,Net-(J2-Pad2)*%
X150834460Y-103789480D02*
X153012740Y-103789480D01*
X153012740Y-103789480D02*
X153976860Y-104753600D01*
%TO.N,Net-(J2-Pad3)*%
X150834460Y-109682280D02*
X159205540Y-109682280D01*
X159205540Y-109682280D02*
X160976860Y-111453600D01*
%TD*%
%TA.AperFunction,Conductor*%
%TO.N,GND*%
G36*
X116878739Y-103336785D02*
G01*
X116878739Y-103615945D01*
X116883214Y-103631184D01*
X116884604Y-103632389D01*
X116892287Y-103634060D01*
X117543433Y-103634060D01*
X117611554Y-103654062D01*
X117658047Y-103707718D01*
X117668151Y-103777991D01*
X117661879Y-103821612D01*
X117661878Y-103821619D01*
X117661240Y-103826060D01*
X117661240Y-104526060D01*
X117666467Y-104599139D01*
X117668371Y-104605622D01*
X117677473Y-104636622D01*
X117681295Y-104690052D01*
X117662379Y-104821614D01*
X117661740Y-104830555D01*
X117661740Y-104903945D01*
X117666215Y-104919184D01*
X117667605Y-104920389D01*
X117675288Y-104922060D01*
X117693440Y-104922060D01*
X117693440Y-105430059D01*
X117679858Y-105430059D01*
X117674508Y-105431630D01*
X117603511Y-105431631D01*
X117543784Y-105393248D01*
X117527761Y-105369893D01*
X117510552Y-105337528D01*
X117506662Y-105332758D01*
X117506659Y-105332754D01*
X117383263Y-105181458D01*
X117379368Y-105176682D01*
X117366720Y-105166218D01*
X117224191Y-105048308D01*
X117219442Y-105044379D01*
X117036863Y-104945659D01*
X116902107Y-104903945D01*
X116844473Y-104886104D01*
X116844470Y-104886103D01*
X116838586Y-104884282D01*
X116832461Y-104883638D01*
X116832460Y-104883638D01*
X116638293Y-104863230D01*
X116638292Y-104863230D01*
X116632165Y-104862586D01*
X116546457Y-104870386D01*
X116431599Y-104880839D01*
X116431596Y-104880840D01*
X116425460Y-104881398D01*
X116419554Y-104883136D01*
X116419550Y-104883137D01*
X116297073Y-104919184D01*
X116226346Y-104940000D01*
X116042407Y-105036161D01*
X115880648Y-105166218D01*
X115747232Y-105325218D01*
X115744268Y-105330610D01*
X115744265Y-105330614D01*
X115688731Y-105431631D01*
X115647240Y-105507103D01*
X115645379Y-105512970D01*
X115645378Y-105512972D01*
X115634127Y-105548441D01*
X115584480Y-105704946D01*
X115561344Y-105911211D01*
X115578712Y-106118042D01*
X115635923Y-106317560D01*
X115638738Y-106323037D01*
X115638739Y-106323040D01*
X115727982Y-106496690D01*
X115730797Y-106502167D01*
X115734620Y-106506991D01*
X115734623Y-106506995D01*
X115792298Y-106579762D01*
X115859722Y-106664829D01*
X115864415Y-106668823D01*
X115864416Y-106668824D01*
X115865749Y-106669958D01*
X116017786Y-106799352D01*
X116198969Y-106900612D01*
X116396369Y-106964751D01*
X116602468Y-106989327D01*
X116608603Y-106988855D01*
X116608605Y-106988855D01*
X116803273Y-106973876D01*
X116803277Y-106973875D01*
X116809415Y-106973403D01*
X116847222Y-106962847D01*
X117003384Y-106919246D01*
X117003388Y-106919245D01*
X117009328Y-106917586D01*
X117014832Y-106914806D01*
X117014834Y-106914805D01*
X117189091Y-106826782D01*
X117189093Y-106826781D01*
X117194592Y-106824003D01*
X117358150Y-106696217D01*
X117362176Y-106691553D01*
X117362179Y-106691550D01*
X117441946Y-106599139D01*
X117458359Y-106580124D01*
X117518011Y-106541628D01*
X117589007Y-106541493D01*
X117648806Y-106579762D01*
X117674635Y-106626958D01*
X117677137Y-106635479D01*
X117680959Y-106688908D01*
X117661879Y-106821612D01*
X117661878Y-106821619D01*
X117661240Y-106826060D01*
X117661240Y-107526060D01*
X117666467Y-107599139D01*
X117668371Y-107605622D01*
X117677473Y-107636622D01*
X117681295Y-107690052D01*
X117662379Y-107821614D01*
X117661740Y-107830555D01*
X117661740Y-107903945D01*
X117666215Y-107919184D01*
X117667605Y-107920389D01*
X117675288Y-107922060D01*
X117693440Y-107922060D01*
X117693440Y-108430059D01*
X117679855Y-108430059D01*
X117664616Y-108434534D01*
X117663411Y-108435924D01*
X117661740Y-108443607D01*
X117661740Y-108523803D01*
X117661901Y-108528310D01*
X117666480Y-108592329D01*
X117668865Y-108605548D01*
X117677307Y-108634298D01*
X117681129Y-108687727D01*
X117661240Y-108826060D01*
X117661240Y-109526060D01*
X117666467Y-109599139D01*
X117668370Y-109605621D01*
X117668371Y-109605625D01*
X117677137Y-109635480D01*
X117680959Y-109688906D01*
X117678122Y-109708641D01*
X117648630Y-109773222D01*
X117588905Y-109811607D01*
X117517908Y-109811609D01*
X117455761Y-109770348D01*
X117383263Y-109681458D01*
X117379368Y-109676682D01*
X117372174Y-109670730D01*
X117224191Y-109548308D01*
X117219442Y-109544379D01*
X117036863Y-109445659D01*
X116937725Y-109414971D01*
X116844473Y-109386104D01*
X116844470Y-109386103D01*
X116838586Y-109384282D01*
X116832461Y-109383638D01*
X116832460Y-109383638D01*
X116638293Y-109363230D01*
X116638292Y-109363230D01*
X116632165Y-109362586D01*
X116546457Y-109370386D01*
X116431599Y-109380839D01*
X116431596Y-109380840D01*
X116425460Y-109381398D01*
X116419554Y-109383136D01*
X116419550Y-109383137D01*
X116270213Y-109427089D01*
X116226346Y-109440000D01*
X116042407Y-109536161D01*
X115880648Y-109666218D01*
X115747232Y-109825218D01*
X115744268Y-109830610D01*
X115744265Y-109830614D01*
X115662233Y-109979830D01*
X115647240Y-110007103D01*
X115645379Y-110012970D01*
X115645378Y-110012972D01*
X115615860Y-110106024D01*
X115584480Y-110204946D01*
X115561344Y-110411211D01*
X115578712Y-110618042D01*
X115635923Y-110817560D01*
X115638738Y-110823037D01*
X115638739Y-110823040D01*
X115727982Y-110996690D01*
X115730797Y-111002167D01*
X115734620Y-111006991D01*
X115734623Y-111006995D01*
X115778953Y-111062925D01*
X115859722Y-111164829D01*
X116017786Y-111299352D01*
X116198969Y-111400612D01*
X116396369Y-111464751D01*
X116602468Y-111489327D01*
X116608603Y-111488855D01*
X116608605Y-111488855D01*
X116803273Y-111473876D01*
X116803277Y-111473875D01*
X116809415Y-111473403D01*
X116847222Y-111462847D01*
X117003384Y-111419246D01*
X117003388Y-111419245D01*
X117009328Y-111417586D01*
X117014832Y-111414806D01*
X117014834Y-111414805D01*
X117189091Y-111326782D01*
X117189093Y-111326781D01*
X117194592Y-111324003D01*
X117358150Y-111196217D01*
X117362176Y-111191553D01*
X117362179Y-111191550D01*
X117439859Y-111101557D01*
X117499512Y-111063060D01*
X117570509Y-111062925D01*
X117630308Y-111101195D01*
X117659923Y-111165719D01*
X117661240Y-111183888D01*
X117661240Y-111526060D01*
X117666467Y-111599139D01*
X117668370Y-111605621D01*
X117668371Y-111605625D01*
X117677137Y-111635480D01*
X117680959Y-111688908D01*
X117661879Y-111821612D01*
X117661878Y-111821619D01*
X117661240Y-111826060D01*
X117661240Y-112526060D01*
X117661401Y-112528308D01*
X117665318Y-112583070D01*
X117650227Y-112652444D01*
X117600025Y-112702647D01*
X117539639Y-112718060D01*
X116896855Y-112718060D01*
X116881616Y-112722535D01*
X116880411Y-112723925D01*
X116878740Y-112731608D01*
X116878740Y-113031776D01*
X116370741Y-113036051D01*
X116370741Y-112736175D01*
X116366266Y-112720936D01*
X116364876Y-112719731D01*
X116357193Y-112718060D01*
X115370329Y-112718060D01*
X115364864Y-112718298D01*
X115202217Y-112732528D01*
X115191430Y-112734430D01*
X114980979Y-112790821D01*
X114970683Y-112794569D01*
X114773227Y-112886643D01*
X114763726Y-112892129D01*
X114681150Y-112949949D01*
X114613876Y-112972637D01*
X114545016Y-112955352D01*
X114496432Y-112903582D01*
X114482880Y-112846736D01*
X114482880Y-103505384D01*
X114502882Y-103437263D01*
X114556538Y-103390770D01*
X114626812Y-103380666D01*
X114681150Y-103402171D01*
X114763726Y-103459991D01*
X114773227Y-103465477D01*
X114970683Y-103557551D01*
X114980979Y-103561299D01*
X115191430Y-103617690D01*
X115202217Y-103619592D01*
X115364864Y-103633822D01*
X115370329Y-103634060D01*
X116352625Y-103634060D01*
X116367864Y-103629585D01*
X116369069Y-103628195D01*
X116370740Y-103620512D01*
X116370740Y-103331675D01*
X116878739Y-103336785D01*
G37*
%TD.AperFunction*%
%TD*%
%TA.AperFunction,Conductor*%
%TO.N,GND*%
G36*
X131317906Y-106408942D02*
G01*
X131338881Y-106425845D01*
X131610257Y-106697222D01*
X131644282Y-106759534D01*
X131647161Y-106786317D01*
X131647160Y-107884680D01*
X131627158Y-107952801D01*
X131610255Y-107973775D01*
X130953422Y-108630608D01*
X130945808Y-108644552D01*
X130945939Y-108646385D01*
X130950190Y-108653000D01*
X131622737Y-109325547D01*
X131635117Y-109332307D01*
X131641381Y-109327618D01*
X131703284Y-109213607D01*
X131753367Y-109163285D01*
X131822705Y-109148029D01*
X131889284Y-109172681D01*
X131903110Y-109184634D01*
X132173881Y-109455405D01*
X132191795Y-109485694D01*
X132196859Y-109490107D01*
X132196840Y-109496860D01*
X132204608Y-109496860D01*
X132224860Y-109514508D01*
X132242792Y-109524316D01*
X132430049Y-109711573D01*
X132437409Y-109719661D01*
X132441467Y-109726055D01*
X132447244Y-109731480D01*
X132490318Y-109771929D01*
X132493160Y-109774684D01*
X132513473Y-109794997D01*
X132516884Y-109797642D01*
X132525904Y-109805346D01*
X132558139Y-109835617D01*
X132565084Y-109839435D01*
X132565087Y-109839437D01*
X132575892Y-109845377D01*
X132592419Y-109856233D01*
X132602154Y-109863785D01*
X132602157Y-109863787D01*
X132608416Y-109868642D01*
X132648987Y-109886199D01*
X132659640Y-109891418D01*
X132691450Y-109908906D01*
X132691453Y-109908907D01*
X132698392Y-109912722D01*
X132718021Y-109917762D01*
X132736711Y-109924161D01*
X132755304Y-109932207D01*
X132784511Y-109936833D01*
X132798968Y-109939123D01*
X132810589Y-109941530D01*
X132847658Y-109951047D01*
X132853415Y-109952525D01*
X132853971Y-109952560D01*
X132873893Y-109952560D01*
X132893602Y-109954111D01*
X132913384Y-109957244D01*
X132921276Y-109956498D01*
X132957022Y-109953119D01*
X132968880Y-109952560D01*
X135664860Y-109952560D01*
X135732981Y-109972562D01*
X135779474Y-110026218D01*
X135790860Y-110078560D01*
X135790860Y-110384500D01*
X135796087Y-110457579D01*
X135837264Y-110597816D01*
X135842135Y-110605395D01*
X135911411Y-110713191D01*
X135911413Y-110713194D01*
X135916283Y-110720771D01*
X135923093Y-110726672D01*
X135936929Y-110738661D01*
X135975312Y-110798387D01*
X135980410Y-110832699D01*
X135981209Y-110917537D01*
X135981440Y-110942120D01*
X135986809Y-110942234D01*
X135996481Y-110974062D01*
X135996917Y-110974725D01*
X135997670Y-111045718D01*
X135966356Y-111095015D01*
X135968416Y-111096800D01*
X135878698Y-111200340D01*
X135869053Y-111215348D01*
X135815883Y-111331775D01*
X135810858Y-111348888D01*
X135791999Y-111480054D01*
X135791360Y-111488995D01*
X135791360Y-111612385D01*
X135795835Y-111627624D01*
X135797225Y-111628829D01*
X135804908Y-111630500D01*
X136882360Y-111630500D01*
X136950481Y-111650502D01*
X136996974Y-111704158D01*
X137008360Y-111756500D01*
X137008360Y-112706500D01*
X136988358Y-112774621D01*
X136934702Y-112821114D01*
X136914184Y-112825577D01*
X136914718Y-112827396D01*
X136882096Y-112836975D01*
X136880891Y-112838365D01*
X136879220Y-112846048D01*
X136879219Y-113626898D01*
X136879220Y-113626904D01*
X136879219Y-115070785D01*
X136883694Y-115086024D01*
X136885084Y-115087229D01*
X136892767Y-115088900D01*
X136989442Y-115088900D01*
X136996743Y-115088476D01*
X137118474Y-115074283D01*
X137132629Y-115070937D01*
X137284980Y-115015637D01*
X137297979Y-115009127D01*
X137399255Y-114942728D01*
X137467190Y-114922105D01*
X137535491Y-114941485D01*
X137582471Y-114994714D01*
X137594340Y-115048100D01*
X137594340Y-115226830D01*
X137574338Y-115294951D01*
X137520682Y-115341444D01*
X137468340Y-115352830D01*
X128837011Y-115352830D01*
X128768890Y-115332828D01*
X128722397Y-115279172D01*
X128712293Y-115208898D01*
X128741787Y-115144318D01*
X128765642Y-115122991D01*
X128777846Y-115114604D01*
X128795064Y-115095279D01*
X128855311Y-115057726D01*
X128889138Y-115053100D01*
X130545800Y-115053100D01*
X130618879Y-115047873D01*
X130728666Y-115015637D01*
X130750470Y-115009235D01*
X130750472Y-115009234D01*
X130759116Y-115006696D01*
X130854284Y-114945535D01*
X130874491Y-114932549D01*
X130874494Y-114932547D01*
X130882071Y-114927677D01*
X130888300Y-114920488D01*
X130971882Y-114824031D01*
X130971884Y-114824028D01*
X130977784Y-114817219D01*
X130987333Y-114796310D01*
X131034758Y-114692464D01*
X131034758Y-114692463D01*
X131038500Y-114684270D01*
X131039782Y-114675354D01*
X131058661Y-114544048D01*
X131058662Y-114544041D01*
X131059300Y-114539600D01*
X131059300Y-113907147D01*
X131932800Y-113907147D01*
X131932800Y-114537343D01*
X131932961Y-114541850D01*
X131937540Y-114605869D01*
X131939926Y-114619091D01*
X131976619Y-114744058D01*
X131984033Y-114760292D01*
X132053226Y-114867960D01*
X132064912Y-114881447D01*
X132161640Y-114965262D01*
X132176648Y-114974907D01*
X132293075Y-115028077D01*
X132310188Y-115033102D01*
X132441354Y-115051961D01*
X132450295Y-115052600D01*
X133473685Y-115052600D01*
X133488924Y-115048125D01*
X133490129Y-115046735D01*
X133491800Y-115039052D01*
X133491800Y-115034485D01*
X133999799Y-115034485D01*
X134004274Y-115049724D01*
X134005664Y-115050929D01*
X134013347Y-115052600D01*
X135043543Y-115052600D01*
X135048050Y-115052439D01*
X135112069Y-115047860D01*
X135125291Y-115045474D01*
X135250258Y-115008781D01*
X135266492Y-115001367D01*
X135374160Y-114932174D01*
X135387647Y-114920488D01*
X135471462Y-114823760D01*
X135485979Y-114801170D01*
X135488203Y-114802599D01*
X135525630Y-114759401D01*
X135593749Y-114739395D01*
X135661871Y-114759394D01*
X135699128Y-114796310D01*
X135710858Y-114814200D01*
X135720191Y-114825363D01*
X135837848Y-114936821D01*
X135849495Y-114945535D01*
X135989649Y-115026943D01*
X136002974Y-115032737D01*
X136158920Y-115079968D01*
X136171543Y-115082416D01*
X136241404Y-115088651D01*
X136246999Y-115088900D01*
X136353105Y-115088900D01*
X136368344Y-115084425D01*
X136369549Y-115083035D01*
X136371220Y-115075352D01*
X136371221Y-114153015D01*
X136366746Y-114137776D01*
X136365356Y-114136571D01*
X136357673Y-114134900D01*
X135628220Y-114134899D01*
X135560099Y-114114897D01*
X135513606Y-114061241D01*
X135502220Y-114008899D01*
X135502220Y-113911715D01*
X135497745Y-113896476D01*
X135496355Y-113895271D01*
X135488672Y-113893600D01*
X134017915Y-113893599D01*
X134002676Y-113898074D01*
X134001471Y-113899464D01*
X133999800Y-113907147D01*
X133999799Y-115034485D01*
X133491800Y-115034485D01*
X133491801Y-113911715D01*
X133487326Y-113896476D01*
X133485936Y-113895271D01*
X133478253Y-113893600D01*
X131950915Y-113893599D01*
X131935676Y-113898074D01*
X131934471Y-113899464D01*
X131932800Y-113907147D01*
X131059300Y-113907147D01*
X131059300Y-112744095D01*
X131932800Y-112744095D01*
X131932800Y-113367485D01*
X131937275Y-113382724D01*
X131938665Y-113383929D01*
X131946348Y-113385600D01*
X133473685Y-113385601D01*
X133488924Y-113381126D01*
X133490129Y-113379736D01*
X133491800Y-113372053D01*
X133491800Y-113367485D01*
X133999799Y-113367485D01*
X134004274Y-113382724D01*
X134005664Y-113383929D01*
X134013347Y-113385600D01*
X135467800Y-113385601D01*
X135535921Y-113405603D01*
X135582414Y-113459259D01*
X135593800Y-113511601D01*
X135593800Y-113608785D01*
X135598275Y-113624024D01*
X135599665Y-113625229D01*
X135607348Y-113626900D01*
X136353105Y-113626901D01*
X136368344Y-113622426D01*
X136369549Y-113621036D01*
X136371220Y-113613353D01*
X136371221Y-112758900D01*
X136391223Y-112690779D01*
X136444879Y-112644286D01*
X136465396Y-112639823D01*
X136464862Y-112638004D01*
X136497484Y-112628425D01*
X136498689Y-112627035D01*
X136500360Y-112619352D01*
X136500360Y-112156615D01*
X136495885Y-112141376D01*
X136494495Y-112140171D01*
X136486812Y-112138500D01*
X135809475Y-112138500D01*
X135794236Y-112142975D01*
X135793031Y-112144365D01*
X135791360Y-112152048D01*
X135791360Y-112282243D01*
X135791521Y-112286750D01*
X135796100Y-112350769D01*
X135798486Y-112363991D01*
X135835179Y-112488958D01*
X135842593Y-112505192D01*
X135916660Y-112620444D01*
X135914708Y-112621698D01*
X135938922Y-112674725D01*
X135928816Y-112744999D01*
X135883289Y-112798024D01*
X135816914Y-112841541D01*
X135805763Y-112850865D01*
X135776273Y-112881995D01*
X135714903Y-112917693D01*
X135643977Y-112914545D01*
X135586011Y-112873551D01*
X135559410Y-112807727D01*
X135558800Y-112795342D01*
X135558800Y-112741857D01*
X135558639Y-112737350D01*
X135554060Y-112673331D01*
X135551674Y-112660109D01*
X135514981Y-112535142D01*
X135507567Y-112518908D01*
X135438374Y-112411240D01*
X135426688Y-112397753D01*
X135329960Y-112313938D01*
X135314952Y-112304293D01*
X135198525Y-112251123D01*
X135181412Y-112246098D01*
X135050246Y-112227239D01*
X135041305Y-112226600D01*
X134017915Y-112226600D01*
X134002676Y-112231075D01*
X134001471Y-112232465D01*
X133999800Y-112240148D01*
X133999799Y-113367485D01*
X133491800Y-113367485D01*
X133491801Y-112244715D01*
X133487326Y-112229476D01*
X133485936Y-112228271D01*
X133478253Y-112226600D01*
X132448057Y-112226600D01*
X132443550Y-112226761D01*
X132379531Y-112231340D01*
X132366309Y-112233726D01*
X132241342Y-112270419D01*
X132225108Y-112277833D01*
X132117440Y-112347026D01*
X132103953Y-112358712D01*
X132020138Y-112455440D01*
X132010493Y-112470448D01*
X131957323Y-112586875D01*
X131952298Y-112603988D01*
X131933439Y-112735154D01*
X131932800Y-112744095D01*
X131059300Y-112744095D01*
X131059300Y-112739600D01*
X131054073Y-112666521D01*
X131030687Y-112586875D01*
X131015435Y-112534930D01*
X131015434Y-112534928D01*
X131012896Y-112526284D01*
X130971571Y-112461981D01*
X130938749Y-112410909D01*
X130938747Y-112410906D01*
X130933877Y-112403329D01*
X130882387Y-112358712D01*
X130830231Y-112313518D01*
X130830228Y-112313516D01*
X130823419Y-112307616D01*
X130690470Y-112246900D01*
X130681555Y-112245618D01*
X130681554Y-112245618D01*
X130550248Y-112226739D01*
X130550241Y-112226738D01*
X130545800Y-112226100D01*
X127945800Y-112226100D01*
X127872721Y-112231327D01*
X127819684Y-112246900D01*
X127741130Y-112269965D01*
X127741128Y-112269966D01*
X127732484Y-112272504D01*
X127724905Y-112277375D01*
X127617109Y-112346651D01*
X127617106Y-112346653D01*
X127609529Y-112351523D01*
X127603628Y-112358333D01*
X127547911Y-112422633D01*
X127488184Y-112461016D01*
X127452687Y-112466120D01*
X126381820Y-112466120D01*
X126313699Y-112446118D01*
X126267206Y-112392462D01*
X126255820Y-112340120D01*
X126255820Y-112084120D01*
X126275822Y-112015999D01*
X126329478Y-111969506D01*
X126381820Y-111958120D01*
X127499705Y-111958120D01*
X127514944Y-111953645D01*
X127516149Y-111952255D01*
X127517820Y-111944572D01*
X127517820Y-111697897D01*
X127517396Y-111690596D01*
X127503203Y-111568865D01*
X127499857Y-111554710D01*
X127444557Y-111402359D01*
X127438047Y-111389360D01*
X127349179Y-111253814D01*
X127339855Y-111242662D01*
X127216875Y-111126162D01*
X127218707Y-111124228D01*
X127183578Y-111077328D01*
X127178494Y-111006513D01*
X127212502Y-110944192D01*
X127224914Y-110933305D01*
X127252011Y-110912512D01*
X127345535Y-110790630D01*
X127404326Y-110648695D01*
X127419379Y-110534358D01*
X127419379Y-110256881D01*
X127419380Y-109955379D01*
X127439382Y-109887258D01*
X127493038Y-109840765D01*
X127545380Y-109829379D01*
X127567765Y-109829379D01*
X127583004Y-109824904D01*
X127584209Y-109823514D01*
X127585880Y-109815831D01*
X127585881Y-109321380D01*
X127585880Y-109321376D01*
X127585880Y-109305879D01*
X127605882Y-109237758D01*
X127659538Y-109191265D01*
X127711878Y-109179879D01*
X127763254Y-109179880D01*
X127831373Y-109199881D01*
X127877866Y-109253537D01*
X127887970Y-109323811D01*
X127886372Y-109332664D01*
X127885880Y-109334926D01*
X127885879Y-109811265D01*
X127890354Y-109826505D01*
X127891744Y-109827709D01*
X127899426Y-109829380D01*
X128119735Y-109829380D01*
X128127943Y-109828842D01*
X128229876Y-109815422D01*
X128245696Y-109811183D01*
X128372249Y-109758763D01*
X128386430Y-109750576D01*
X128458707Y-109695116D01*
X129894534Y-109695116D01*
X129899815Y-109702171D01*
X130038792Y-109783383D01*
X130048913Y-109788146D01*
X130249248Y-109861458D01*
X130260033Y-109864348D01*
X130470192Y-109901026D01*
X130481324Y-109901961D01*
X130694644Y-109900844D01*
X130705778Y-109899792D01*
X130915526Y-109860917D01*
X130926297Y-109857910D01*
X131125852Y-109782505D01*
X131135908Y-109777644D01*
X131258310Y-109704387D01*
X131267879Y-109694030D01*
X131264336Y-109685566D01*
X130594212Y-109015442D01*
X130580268Y-109007828D01*
X130578435Y-109007959D01*
X130571820Y-109012210D01*
X129901294Y-109682736D01*
X129894534Y-109695116D01*
X128458707Y-109695116D01*
X128495112Y-109667182D01*
X128506681Y-109655613D01*
X128590075Y-109546931D01*
X128598262Y-109532752D01*
X128650685Y-109406193D01*
X128654922Y-109390379D01*
X128661641Y-109339340D01*
X128659430Y-109325158D01*
X128646273Y-109321380D01*
X128470671Y-109321380D01*
X128402550Y-109301378D01*
X128356057Y-109247722D01*
X128345953Y-109177448D01*
X128375447Y-109112868D01*
X128393967Y-109095418D01*
X128456520Y-109047419D01*
X128522740Y-109021818D01*
X128533224Y-109021381D01*
X128645891Y-109021381D01*
X128661130Y-109016906D01*
X128676800Y-108998822D01*
X128685455Y-108980163D01*
X128745406Y-108942133D01*
X128780191Y-108937236D01*
X128906507Y-108937236D01*
X128912959Y-108935864D01*
X128912964Y-108935864D01*
X128999907Y-108917383D01*
X129093307Y-108897530D01*
X129099340Y-108894844D01*
X129099346Y-108894842D01*
X129181429Y-108858296D01*
X129251795Y-108848861D01*
X129316093Y-108878967D01*
X129355041Y-108943347D01*
X129356674Y-108949994D01*
X129425775Y-109151820D01*
X129430323Y-109162034D01*
X129519219Y-109321750D01*
X129529272Y-109331641D01*
X129536875Y-109328735D01*
X131260244Y-107605366D01*
X131266468Y-107593968D01*
X131256657Y-107581534D01*
X131194515Y-107539777D01*
X131184715Y-107534389D01*
X130989388Y-107448645D01*
X130978789Y-107445078D01*
X130771360Y-107395279D01*
X130760298Y-107393646D01*
X130547335Y-107381366D01*
X130536151Y-107381718D01*
X130324381Y-107407346D01*
X130313444Y-107409670D01*
X130109548Y-107472396D01*
X130099204Y-107476617D01*
X129909634Y-107574462D01*
X129900203Y-107580447D01*
X129807008Y-107651958D01*
X129740788Y-107677558D01*
X129671239Y-107663293D01*
X129621185Y-107614995D01*
X129574647Y-107534389D01*
X129550057Y-107491798D01*
X129536388Y-107476617D01*
X129445364Y-107375524D01*
X129414646Y-107311517D01*
X129413000Y-107291214D01*
X129413000Y-107174869D01*
X129413690Y-107161699D01*
X129429190Y-107014225D01*
X129429880Y-107007660D01*
X129413690Y-106853621D01*
X129413000Y-106840451D01*
X129413000Y-106514940D01*
X129433002Y-106446819D01*
X129486658Y-106400326D01*
X129539000Y-106388940D01*
X131249785Y-106388940D01*
X131317906Y-106408942D01*
G37*
%TD.AperFunction*%
%TD*%
M02*
