%TF.GenerationSoftware,KiCad,Pcbnew,(5.99.0-7212-gef75ce9035)*%
%TF.CreationDate,2021-04-24T18:58:59-07:00*%
%TF.ProjectId,nikon_ctrl,6e696b6f-6e5f-4637-9472-6c2e6b696361,rev?*%
%TF.SameCoordinates,Original*%
%TF.FileFunction,Soldermask,Top*%
%TF.FilePolarity,Negative*%
%FSLAX46Y46*%
G04 Gerber Fmt 4.6, Leading zero omitted, Abs format (unit mm)*
G04 Created by KiCad (PCBNEW (5.99.0-7212-gef75ce9035)) date 2021-04-24 18:58:59*
%MOMM*%
%LPD*%
G01*
G04 APERTURE LIST*
G04 Aperture macros list*
%AMRoundRect*
0 Rectangle with rounded corners*
0 $1 Rounding radius*
0 $2 $3 $4 $5 $6 $7 $8 $9 X,Y pos of 4 corners*
0 Add a 4 corners polygon primitive as box body*
4,1,4,$2,$3,$4,$5,$6,$7,$8,$9,$2,$3,0*
0 Add four circle primitives for the rounded corners*
1,1,$1+$1,$2,$3,0*
1,1,$1+$1,$4,$5,0*
1,1,$1+$1,$6,$7,0*
1,1,$1+$1,$8,$9,0*
0 Add four rect primitives between the rounded corners*
20,1,$1+$1,$2,$3,$4,$5,0*
20,1,$1+$1,$4,$5,$6,$7,0*
20,1,$1+$1,$6,$7,$8,$9,0*
20,1,$1+$1,$8,$9,$2,$3,0*%
G04 Aperture macros list end*
%ADD10R,1.000000X0.800000*%
%ADD11R,0.950000X1.450000*%
%ADD12R,2.600000X1.800000*%
%ADD13C,1.500000*%
%ADD14RoundRect,0.250000X-0.325000X-0.450000X0.325000X-0.450000X0.325000X0.450000X-0.325000X0.450000X0*%
%ADD15O,1.700000X1.700000*%
%ADD16R,1.700000X1.700000*%
%ADD17RoundRect,0.250000X0.325000X0.450000X-0.325000X0.450000X-0.325000X-0.450000X0.325000X-0.450000X0*%
%ADD18R,0.900000X0.800000*%
%ADD19RoundRect,0.250000X-0.250000X-0.475000X0.250000X-0.475000X0.250000X0.475000X-0.250000X0.475000X0*%
%ADD20C,1.100000*%
%ADD21R,1.800000X0.700000*%
%ADD22O,4.000000X1.600000*%
%ADD23RoundRect,0.250000X0.250000X0.475000X-0.250000X0.475000X-0.250000X-0.475000X0.250000X-0.475000X0*%
%ADD24R,0.300000X0.300000*%
%ADD25RoundRect,0.075000X-0.075000X0.350000X-0.075000X-0.350000X0.075000X-0.350000X0.075000X0.350000X0*%
%ADD26RoundRect,0.075000X-0.350000X0.075000X-0.350000X-0.075000X0.350000X-0.075000X0.350000X0.075000X0*%
%ADD27R,2.100000X2.100000*%
%ADD28C,3.500000*%
%ADD29R,2.400000X2.950000*%
%ADD30R,2.400000X2.650000*%
%ADD31C,1.000000*%
%ADD32RoundRect,0.250000X-0.450000X0.325000X-0.450000X-0.325000X0.450000X-0.325000X0.450000X0.325000X0*%
%ADD33RoundRect,0.250000X0.475000X-0.250000X0.475000X0.250000X-0.475000X0.250000X-0.475000X-0.250000X0*%
G04 APERTURE END LIST*
D10*
%TO.C,Q2*%
X150834460Y-109682280D03*
X150834460Y-112222280D03*
X144334460Y-112222280D03*
X144334460Y-109682280D03*
%TD*%
%TO.C,Q1*%
X150834460Y-103789480D03*
X150834460Y-106329480D03*
X144334460Y-106329480D03*
X144334460Y-103789480D03*
%TD*%
D11*
%TO.C,LED1*%
X153489620Y-101828600D03*
X155389620Y-101828600D03*
%TD*%
D12*
%TO.C,C2*%
X133745800Y-113639600D03*
X129245800Y-113639600D03*
%TD*%
D13*
%TO.C,3V3*%
X134510780Y-104152700D03*
%TD*%
%TO.C,GND1*%
X130581400Y-108643420D03*
%TD*%
D14*
%TO.C,R13*%
X147895420Y-101828600D03*
X145845420Y-101828600D03*
%TD*%
D15*
%TO.C,J3*%
X141912340Y-114406680D03*
X144452340Y-114406680D03*
D16*
X146992340Y-114406680D03*
%TD*%
D17*
%TO.C,R5*%
X142612019Y-108020701D03*
X140562019Y-108020701D03*
%TD*%
D18*
%TO.C,Q3*%
X136754360Y-109984500D03*
X136754360Y-111884500D03*
X138754360Y-110934500D03*
%TD*%
D17*
%TO.C,R6*%
X142271860Y-102153720D03*
X140221860Y-102153720D03*
%TD*%
%TO.C,L1*%
X126191120Y-114579400D03*
X124141120Y-114579400D03*
%TD*%
%TO.C,R7*%
X138675220Y-113880900D03*
X136625220Y-113880900D03*
%TD*%
D19*
%TO.C,C3*%
X124609820Y-112212120D03*
X126509820Y-112212120D03*
%TD*%
D20*
%TO.C,J1*%
X116624740Y-105926060D03*
X116624740Y-110426060D03*
D21*
X119074740Y-111176060D03*
X119074740Y-109176060D03*
X119074740Y-107176060D03*
X119074740Y-105176060D03*
X119074740Y-104176060D03*
X119074740Y-106176060D03*
X119074740Y-108176060D03*
X119074740Y-110176060D03*
X119074740Y-112176060D03*
D22*
X116624740Y-114026060D03*
X116624740Y-102326060D03*
%TD*%
D14*
%TO.C,R1*%
X127907372Y-104147620D03*
X129957372Y-104147620D03*
%TD*%
D23*
%TO.C,C1*%
X122316280Y-114551460D03*
X120416280Y-114551460D03*
%TD*%
D17*
%TO.C,R8*%
X138708240Y-108033820D03*
X136658240Y-108033820D03*
%TD*%
D14*
%TO.C,R3*%
X127907372Y-102029260D03*
X129957372Y-102029260D03*
%TD*%
D17*
%TO.C,R2*%
X125950386Y-104147620D03*
X123900386Y-104147620D03*
%TD*%
D18*
%TO.C,Q5*%
X140198600Y-109984500D03*
X140198600Y-111884500D03*
X142198600Y-110934500D03*
%TD*%
D24*
%TO.C,U2*%
X120971760Y-107810820D03*
X120971760Y-108510820D03*
X121821760Y-108160820D03*
%TD*%
D25*
%TO.C,U1*%
X126760880Y-106246380D03*
X126110880Y-106246380D03*
X125460880Y-106246380D03*
X124810880Y-106246380D03*
D26*
X123835880Y-107221380D03*
X123835880Y-107871380D03*
X123835880Y-108521380D03*
X123835880Y-109171380D03*
D25*
X124810880Y-110146380D03*
X125460880Y-110146380D03*
X126110880Y-110146380D03*
X126760880Y-110146380D03*
D26*
X127735880Y-109171380D03*
X127735880Y-108521380D03*
X127735880Y-107871380D03*
X127735880Y-107221380D03*
D27*
X125785880Y-108196380D03*
%TD*%
D28*
%TO.C,H1*%
X158912560Y-102864920D03*
%TD*%
D17*
%TO.C,R4*%
X125950386Y-102029260D03*
X123900386Y-102029260D03*
%TD*%
D18*
%TO.C,Q4*%
X136723880Y-104188220D03*
X136723880Y-106088220D03*
X138723880Y-105138220D03*
%TD*%
%TO.C,Q6*%
X140170660Y-104185680D03*
X140170660Y-106085680D03*
X142170660Y-105135680D03*
%TD*%
D28*
%TO.C,H2*%
X156044900Y-113398300D03*
%TD*%
D29*
%TO.C,J2*%
X163676860Y-104903600D03*
D30*
X153976860Y-104753600D03*
D29*
X160976860Y-111453600D03*
D31*
X162376860Y-108178600D03*
X156376860Y-108178600D03*
%TD*%
D32*
%TO.C,R12*%
X121818400Y-102050740D03*
X121818400Y-104100740D03*
%TD*%
%TO.C,R11*%
X132024120Y-102040580D03*
X132024120Y-104090580D03*
%TD*%
D33*
%TO.C,C4*%
X134330440Y-108033860D03*
X134330440Y-106133860D03*
%TD*%
M02*
