%TF.GenerationSoftware,KiCad,Pcbnew,(5.99.0-7212-gef75ce9035)*%
%TF.CreationDate,2021-04-24T18:58:59-07:00*%
%TF.ProjectId,nikon_ctrl,6e696b6f-6e5f-4637-9472-6c2e6b696361,rev?*%
%TF.SameCoordinates,Original*%
%TF.FileFunction,Copper,L2,Bot*%
%TF.FilePolarity,Positive*%
%FSLAX46Y46*%
G04 Gerber Fmt 4.6, Leading zero omitted, Abs format (unit mm)*
G04 Created by KiCad (PCBNEW (5.99.0-7212-gef75ce9035)) date 2021-04-24 18:58:59*
%MOMM*%
%LPD*%
G01*
G04 APERTURE LIST*
G04 Aperture macros list*
%AMRoundRect*
0 Rectangle with rounded corners*
0 $1 Rounding radius*
0 $2 $3 $4 $5 $6 $7 $8 $9 X,Y pos of 4 corners*
0 Add a 4 corners polygon primitive as box body*
4,1,4,$2,$3,$4,$5,$6,$7,$8,$9,$2,$3,0*
0 Add four circle primitives for the rounded corners*
1,1,$1+$1,$2,$3,0*
1,1,$1+$1,$4,$5,0*
1,1,$1+$1,$6,$7,0*
1,1,$1+$1,$8,$9,0*
0 Add four rect primitives between the rounded corners*
20,1,$1+$1,$2,$3,$4,$5,0*
20,1,$1+$1,$4,$5,$6,$7,0*
20,1,$1+$1,$6,$7,$8,$9,0*
20,1,$1+$1,$8,$9,$2,$3,0*%
G04 Aperture macros list end*
%TA.AperFunction,ComponentPad*%
%ADD10O,1.700000X1.700000*%
%TD*%
%TA.AperFunction,ComponentPad*%
%ADD11R,1.700000X1.700000*%
%TD*%
%TA.AperFunction,ComponentPad*%
%ADD12O,4.000000X1.600000*%
%TD*%
%TA.AperFunction,ComponentPad*%
%ADD13C,3.500000*%
%TD*%
%TA.AperFunction,SMDPad,CuDef*%
%ADD14RoundRect,0.250000X-0.325000X-0.450000X0.325000X-0.450000X0.325000X0.450000X-0.325000X0.450000X0*%
%TD*%
%TA.AperFunction,ViaPad*%
%ADD15C,0.800000*%
%TD*%
%TA.AperFunction,Conductor*%
%ADD16C,0.250000*%
%TD*%
%TA.AperFunction,Conductor*%
%ADD17C,0.400000*%
%TD*%
G04 APERTURE END LIST*
D10*
%TO.P,J3,3,Pin_3*%
%TO.N,GND*%
X141912340Y-114406680D03*
%TO.P,J3,2,Pin_2*%
%TO.N,TXD*%
X144452340Y-114406680D03*
D11*
%TO.P,J3,1,Pin_1*%
%TO.N,RXD*%
X146992340Y-114406680D03*
%TD*%
D12*
%TO.P,J1,10,SHIELD*%
%TO.N,GND*%
X116624740Y-114026060D03*
X116624740Y-102326060D03*
%TD*%
D13*
%TO.P,H1,1*%
%TO.N,N/C*%
X158912560Y-102864920D03*
%TD*%
%TO.P,H2,1*%
%TO.N,N/C*%
X156044900Y-113398300D03*
%TD*%
D14*
%TO.P,R9,1*%
%TO.N,+3V3*%
X123582320Y-107502960D03*
%TO.P,R9,2*%
%TO.N,TXD*%
X125632320Y-107502960D03*
%TD*%
%TO.P,R10,1*%
%TO.N,+3V3*%
X123269900Y-105496360D03*
%TO.P,R10,2*%
%TO.N,RXD*%
X125319900Y-105496360D03*
%TD*%
D15*
%TO.N,GND*%
X141236700Y-112951260D03*
X151693880Y-114449860D03*
X156161740Y-103979980D03*
%TO.N,+3V3*%
X144688560Y-101828600D03*
%TO.N,GND*%
X133197600Y-107515660D03*
X136723880Y-106920540D03*
X120771920Y-113621820D03*
%TO.N,+3V3*%
X143562869Y-108971551D03*
X143860520Y-102656640D03*
%TO.N,GND*%
X115239800Y-104561640D03*
X115239800Y-108176060D03*
X115775740Y-112052100D03*
X131427220Y-110035340D03*
X134713980Y-111066580D03*
X129118360Y-110027720D03*
X131008120Y-107304840D03*
X131513580Y-114294920D03*
X122369580Y-108163360D03*
X116570760Y-108163360D03*
%TO.N,+3V3*%
X123631960Y-110208060D03*
%TO.N,TXD*%
X128811020Y-108028740D03*
%TO.N,+3V3*%
X133068060Y-101589840D03*
X126923800Y-105318560D03*
%TO.N,RXD*%
X124945140Y-105166160D03*
%TO.N,RTS*%
X128516380Y-107007660D03*
X130642360Y-103372920D03*
%TO.N,+3V3*%
X120909080Y-102039420D03*
%TD*%
D16*
%TO.N,GND*%
X153121360Y-107020360D02*
X153121360Y-113022380D01*
X153121360Y-113022380D02*
X151693880Y-114449860D01*
X156161740Y-103979980D02*
X153121360Y-107020360D01*
%TO.N,RXD*%
X129542110Y-105419730D02*
X129542110Y-103400168D01*
X125867101Y-106043561D02*
X128791801Y-106043561D01*
X129542110Y-105419730D02*
X128918279Y-106043561D01*
X128918279Y-106043561D02*
X128791801Y-106043561D01*
%TO.N,GND*%
X141912340Y-114406680D02*
X136878060Y-114406680D01*
X136878060Y-114406680D02*
X134713980Y-112242600D01*
X134713980Y-112242600D02*
X134713980Y-111066580D01*
%TO.N,TXD*%
X130493622Y-108028740D02*
X131077822Y-108612940D01*
X128811020Y-108028740D02*
X130493622Y-108028740D01*
X131077822Y-108612940D02*
X138658600Y-108612940D01*
X138658600Y-108612940D02*
X144452340Y-114406680D01*
%TO.N,RXD*%
X125319900Y-105496360D02*
X125867101Y-106043561D01*
X129542110Y-103400168D02*
X130294359Y-102647919D01*
X130294359Y-102647919D02*
X135233579Y-102647919D01*
X135233579Y-102647919D02*
X146992340Y-114406680D01*
%TO.N,GND*%
X122369580Y-108163360D02*
X116570760Y-108163360D01*
D17*
%TO.N,+3V3*%
X123631960Y-110208060D02*
X123631960Y-107837080D01*
D16*
X123631960Y-107837080D02*
X123269900Y-107475020D01*
X123269900Y-104336960D02*
X123601480Y-104005380D01*
X123601480Y-104005380D02*
X126908560Y-104005380D01*
X123269900Y-105496360D02*
X123269900Y-104336960D01*
X126923800Y-105318560D02*
X127572770Y-104669590D01*
X127572770Y-104669590D02*
X130200400Y-102041960D01*
X126908560Y-104005380D02*
X127572770Y-104669590D01*
%TO.N,TXD*%
X128811020Y-108028740D02*
X125873620Y-108028740D01*
X125873620Y-108028740D02*
X125319900Y-107475020D01*
%TO.N,+3V3*%
X132615940Y-102041960D02*
X133068060Y-101589840D01*
X130200400Y-102041960D02*
X132615940Y-102041960D01*
%TO.N,RXD*%
X124910008Y-105094325D02*
X124917865Y-105094325D01*
X124917865Y-105094325D02*
X125319900Y-105496360D01*
%TO.N,RTS*%
X129357120Y-107007660D02*
X129992120Y-106372660D01*
X129992120Y-104023160D02*
X130642360Y-103372920D01*
X128516380Y-107007660D02*
X129357120Y-107007660D01*
X129992120Y-106372660D02*
X129992120Y-104023160D01*
%TO.N,+3V3*%
X120464580Y-102483920D02*
X120909080Y-102039420D01*
X123269900Y-105496360D02*
X121206260Y-105496360D01*
X120464580Y-104754680D02*
X120464580Y-102483920D01*
X121206260Y-105496360D02*
X120464580Y-104754680D01*
D17*
X123269900Y-105496360D02*
X123269900Y-107475020D01*
%TD*%
%TA.AperFunction,Conductor*%
%TO.N,GND*%
G36*
X116752740Y-102072061D02*
G01*
X116820861Y-102092063D01*
X116867354Y-102145719D01*
X116878740Y-102198061D01*
X116878739Y-103615945D01*
X116883214Y-103631184D01*
X116884604Y-103632389D01*
X116892287Y-103634060D01*
X117879151Y-103634060D01*
X117884616Y-103633822D01*
X118047263Y-103619592D01*
X118058050Y-103617690D01*
X118268501Y-103561299D01*
X118278797Y-103557551D01*
X118476253Y-103465477D01*
X118485749Y-103459994D01*
X118664209Y-103335035D01*
X118672617Y-103327979D01*
X118826659Y-103173937D01*
X118833715Y-103165529D01*
X118958674Y-102987069D01*
X118964157Y-102977573D01*
X119056231Y-102780117D01*
X119059979Y-102769821D01*
X119094174Y-102642206D01*
X119131126Y-102581584D01*
X119194987Y-102550562D01*
X119265481Y-102558991D01*
X119320228Y-102604194D01*
X119341881Y-102675087D01*
X119336234Y-105317867D01*
X119343818Y-105325654D01*
X119343818Y-105325655D01*
X120672936Y-106690411D01*
X120946594Y-106971407D01*
X121120849Y-106970682D01*
X122042416Y-106966851D01*
X122110619Y-106986570D01*
X122157335Y-107040032D01*
X122168939Y-107092243D01*
X122178494Y-109082147D01*
X122191502Y-109082304D01*
X122191503Y-109082304D01*
X122798979Y-109089623D01*
X122866854Y-109110444D01*
X122912697Y-109164656D01*
X122923460Y-109215611D01*
X122923460Y-109589321D01*
X122899398Y-109663379D01*
X122897337Y-109666215D01*
X122892923Y-109671118D01*
X122797436Y-109836506D01*
X122738422Y-110018133D01*
X122737732Y-110024696D01*
X122737732Y-110024697D01*
X122719404Y-110199077D01*
X122718460Y-110208060D01*
X122738422Y-110397987D01*
X122740462Y-110404265D01*
X122740462Y-110404266D01*
X122757192Y-110455755D01*
X122797436Y-110579614D01*
X122892923Y-110745002D01*
X122897341Y-110749909D01*
X122897342Y-110749910D01*
X123000059Y-110863989D01*
X123020709Y-110886923D01*
X123026051Y-110890804D01*
X123026053Y-110890806D01*
X123169868Y-110995293D01*
X123175210Y-110999174D01*
X123181238Y-111001858D01*
X123181240Y-111001859D01*
X123181932Y-111002167D01*
X123349673Y-111076850D01*
X123443073Y-111096703D01*
X123530016Y-111115184D01*
X123530021Y-111115184D01*
X123536473Y-111116556D01*
X123727447Y-111116556D01*
X123733899Y-111115184D01*
X123733904Y-111115184D01*
X123820847Y-111096703D01*
X123914247Y-111076850D01*
X124081988Y-111002167D01*
X124082680Y-111001859D01*
X124082682Y-111001858D01*
X124088710Y-110999174D01*
X124094052Y-110995293D01*
X124237867Y-110890806D01*
X124237869Y-110890804D01*
X124243211Y-110886923D01*
X124263861Y-110863989D01*
X124366578Y-110749910D01*
X124366579Y-110749909D01*
X124370997Y-110745002D01*
X124466484Y-110579614D01*
X124506728Y-110455755D01*
X124523458Y-110404266D01*
X124523458Y-110404265D01*
X124525498Y-110397987D01*
X124545460Y-110208060D01*
X124544516Y-110199077D01*
X124526188Y-110024697D01*
X124526188Y-110024696D01*
X124525498Y-110018133D01*
X124466484Y-109836506D01*
X124370997Y-109671118D01*
X124366583Y-109666215D01*
X124364522Y-109663379D01*
X124340460Y-109589321D01*
X124340460Y-108736270D01*
X124360462Y-108668149D01*
X124414118Y-108621656D01*
X124464924Y-108610279D01*
X124884791Y-108605161D01*
X124949612Y-108622198D01*
X124996544Y-108649458D01*
X124996546Y-108649459D01*
X125002875Y-108653135D01*
X125136101Y-108693485D01*
X125152930Y-108698582D01*
X125172116Y-108704393D01*
X125178556Y-108704968D01*
X125178557Y-108704968D01*
X125248505Y-108711211D01*
X125248511Y-108711211D01*
X125251298Y-108711460D01*
X126000206Y-108711460D01*
X126105834Y-108699145D01*
X126125691Y-108696830D01*
X126125692Y-108696830D01*
X126132963Y-108695982D01*
X126139839Y-108693486D01*
X126139844Y-108693485D01*
X126205091Y-108669801D01*
X126248082Y-108662240D01*
X128102826Y-108662240D01*
X128170947Y-108682242D01*
X128190171Y-108698582D01*
X128190445Y-108698278D01*
X128195348Y-108702693D01*
X128199769Y-108707603D01*
X128205111Y-108711484D01*
X128205113Y-108711486D01*
X128348928Y-108815973D01*
X128354270Y-108819854D01*
X128360298Y-108822538D01*
X128360300Y-108822539D01*
X128522702Y-108894845D01*
X128528733Y-108897530D01*
X128622133Y-108917383D01*
X128709076Y-108935864D01*
X128709081Y-108935864D01*
X128715533Y-108937236D01*
X128906507Y-108937236D01*
X128912959Y-108935864D01*
X128912964Y-108935864D01*
X128999907Y-108917383D01*
X129093307Y-108897530D01*
X129099338Y-108894845D01*
X129261740Y-108822539D01*
X129261742Y-108822538D01*
X129267770Y-108819854D01*
X129273112Y-108815973D01*
X129416927Y-108711486D01*
X129416929Y-108711484D01*
X129422271Y-108707603D01*
X129426692Y-108702693D01*
X129431595Y-108698278D01*
X129432721Y-108699529D01*
X129486020Y-108666691D01*
X129519214Y-108662240D01*
X130179028Y-108662240D01*
X130247149Y-108682242D01*
X130268123Y-108699145D01*
X130574431Y-109005453D01*
X130581791Y-109013541D01*
X130585849Y-109019935D01*
X130591626Y-109025360D01*
X130634700Y-109065809D01*
X130637542Y-109068564D01*
X130657856Y-109088878D01*
X130661267Y-109091523D01*
X130670287Y-109099227D01*
X130702521Y-109129497D01*
X130709465Y-109133314D01*
X130709467Y-109133316D01*
X130720275Y-109139258D01*
X130736799Y-109150112D01*
X130752799Y-109162523D01*
X130760070Y-109165670D01*
X130760071Y-109165670D01*
X130793373Y-109180081D01*
X130804029Y-109185302D01*
X130842774Y-109206602D01*
X130850457Y-109208574D01*
X130850458Y-109208575D01*
X130862390Y-109211639D01*
X130881094Y-109218043D01*
X130892407Y-109222939D01*
X130892414Y-109222941D01*
X130899686Y-109226088D01*
X130907510Y-109227327D01*
X130907513Y-109227328D01*
X130943357Y-109233005D01*
X130954978Y-109235412D01*
X130992040Y-109244927D01*
X130997797Y-109246405D01*
X130998353Y-109246440D01*
X131018274Y-109246440D01*
X131037984Y-109247991D01*
X131049936Y-109249884D01*
X131049937Y-109249884D01*
X131057766Y-109251124D01*
X131065658Y-109250378D01*
X131101404Y-109246999D01*
X131113262Y-109246440D01*
X138344006Y-109246440D01*
X138412127Y-109266442D01*
X138433101Y-109283345D01*
X142129787Y-112980032D01*
X142163813Y-113042344D01*
X142162885Y-113070349D01*
X142166340Y-113070349D01*
X142166339Y-114152678D01*
X142166340Y-114152684D01*
X142166339Y-114534680D01*
X142146337Y-114602801D01*
X142092681Y-114649294D01*
X142040339Y-114660680D01*
X140595743Y-114660679D01*
X140582562Y-114664549D01*
X140580595Y-114679102D01*
X140588978Y-114731151D01*
X140591552Y-114741473D01*
X140662570Y-114949490D01*
X140666837Y-114959213D01*
X140771892Y-115152298D01*
X140775298Y-115157463D01*
X140796102Y-115225343D01*
X140776905Y-115293695D01*
X140723802Y-115340818D01*
X140670111Y-115352830D01*
X118609971Y-115352830D01*
X118541850Y-115332828D01*
X118495357Y-115279172D01*
X118485253Y-115208898D01*
X118514747Y-115144318D01*
X118537700Y-115123617D01*
X118664209Y-115035035D01*
X118672617Y-115027979D01*
X118826659Y-114873937D01*
X118833715Y-114865529D01*
X118958674Y-114687069D01*
X118964157Y-114677573D01*
X119056231Y-114480117D01*
X119059979Y-114469821D01*
X119106138Y-114297557D01*
X119105802Y-114283461D01*
X119097860Y-114280060D01*
X116878742Y-114280059D01*
X116878736Y-114280060D01*
X116496740Y-114280059D01*
X116428619Y-114260057D01*
X116382126Y-114206401D01*
X116370740Y-114154059D01*
X116370740Y-114134854D01*
X140581348Y-114134854D01*
X140582767Y-114148094D01*
X140597402Y-114152680D01*
X141640225Y-114152681D01*
X141655464Y-114148206D01*
X141656669Y-114146816D01*
X141658340Y-114139133D01*
X141658341Y-113090396D01*
X141654368Y-113076865D01*
X141643761Y-113075340D01*
X141525895Y-113100071D01*
X141515698Y-113103131D01*
X141311272Y-113183862D01*
X141301736Y-113188596D01*
X141113826Y-113302622D01*
X141105236Y-113308886D01*
X140939224Y-113452944D01*
X140931804Y-113460575D01*
X140792440Y-113630540D01*
X140786415Y-113639307D01*
X140677682Y-113830324D01*
X140673217Y-113839988D01*
X140598222Y-114046596D01*
X140595451Y-114056864D01*
X140581348Y-114134854D01*
X116370740Y-114134854D01*
X116370740Y-113753945D01*
X116878739Y-113753945D01*
X116883214Y-113769184D01*
X116884604Y-113770389D01*
X116892287Y-113772060D01*
X119092711Y-113772061D01*
X119106242Y-113768088D01*
X119107471Y-113759539D01*
X119059979Y-113582298D01*
X119056233Y-113572006D01*
X118964157Y-113374547D01*
X118958674Y-113365051D01*
X118833715Y-113186591D01*
X118826659Y-113178183D01*
X118672617Y-113024141D01*
X118664209Y-113017085D01*
X118485749Y-112892126D01*
X118476253Y-112886643D01*
X118278797Y-112794569D01*
X118268501Y-112790821D01*
X118058050Y-112734430D01*
X118047263Y-112732528D01*
X117884616Y-112718298D01*
X117879151Y-112718060D01*
X116896855Y-112718060D01*
X116881616Y-112722535D01*
X116880411Y-112723925D01*
X116878740Y-112731608D01*
X116878739Y-113753945D01*
X116370740Y-113753945D01*
X116370741Y-112736175D01*
X116366266Y-112720936D01*
X116364876Y-112719731D01*
X116357193Y-112718060D01*
X115370329Y-112718060D01*
X115364864Y-112718298D01*
X115202217Y-112732528D01*
X115191430Y-112734430D01*
X114980979Y-112790821D01*
X114970683Y-112794569D01*
X114773227Y-112886643D01*
X114763726Y-112892129D01*
X114681150Y-112949949D01*
X114613876Y-112972637D01*
X114545016Y-112955352D01*
X114496432Y-112903582D01*
X114482880Y-112846736D01*
X114482880Y-110411211D01*
X115561344Y-110411211D01*
X115562591Y-110426060D01*
X115575966Y-110585337D01*
X115578712Y-110618042D01*
X115635923Y-110817560D01*
X115638738Y-110823037D01*
X115638739Y-110823040D01*
X115659784Y-110863989D01*
X115730797Y-111002167D01*
X115734620Y-111006991D01*
X115734623Y-111006995D01*
X115821461Y-111116556D01*
X115859722Y-111164829D01*
X116017786Y-111299352D01*
X116198969Y-111400612D01*
X116396369Y-111464751D01*
X116602468Y-111489327D01*
X116608603Y-111488855D01*
X116608605Y-111488855D01*
X116803273Y-111473876D01*
X116803277Y-111473875D01*
X116809415Y-111473403D01*
X116847222Y-111462847D01*
X117003384Y-111419246D01*
X117003388Y-111419245D01*
X117009328Y-111417586D01*
X117014832Y-111414806D01*
X117014834Y-111414805D01*
X117189091Y-111326782D01*
X117189093Y-111326781D01*
X117194592Y-111324003D01*
X117358150Y-111196217D01*
X117362176Y-111191553D01*
X117362179Y-111191550D01*
X117463503Y-111074165D01*
X117493774Y-111039096D01*
X117514928Y-111001859D01*
X117593248Y-110863989D01*
X117596296Y-110858624D01*
X117661811Y-110661677D01*
X117687825Y-110455755D01*
X117688240Y-110426060D01*
X117667986Y-110219492D01*
X117607995Y-110020792D01*
X117510552Y-109837528D01*
X117506662Y-109832758D01*
X117506659Y-109832754D01*
X117383263Y-109681458D01*
X117379368Y-109676682D01*
X117372643Y-109671118D01*
X117224191Y-109548308D01*
X117219442Y-109544379D01*
X117036863Y-109445659D01*
X116937725Y-109414971D01*
X116844473Y-109386104D01*
X116844470Y-109386103D01*
X116838586Y-109384282D01*
X116832461Y-109383638D01*
X116832460Y-109383638D01*
X116638293Y-109363230D01*
X116638292Y-109363230D01*
X116632165Y-109362586D01*
X116546457Y-109370386D01*
X116431599Y-109380839D01*
X116431596Y-109380840D01*
X116425460Y-109381398D01*
X116419554Y-109383136D01*
X116419550Y-109383137D01*
X116270213Y-109427089D01*
X116226346Y-109440000D01*
X116042407Y-109536161D01*
X115880648Y-109666218D01*
X115747232Y-109825218D01*
X115744268Y-109830610D01*
X115744265Y-109830614D01*
X115662233Y-109979830D01*
X115647240Y-110007103D01*
X115645379Y-110012970D01*
X115645378Y-110012972D01*
X115641659Y-110024697D01*
X115584480Y-110204946D01*
X115561344Y-110411211D01*
X114482880Y-110411211D01*
X114482880Y-105911211D01*
X115561344Y-105911211D01*
X115578712Y-106118042D01*
X115635923Y-106317560D01*
X115638738Y-106323037D01*
X115638739Y-106323040D01*
X115727982Y-106496690D01*
X115730797Y-106502167D01*
X115734620Y-106506991D01*
X115734623Y-106506995D01*
X115808358Y-106600024D01*
X115859722Y-106664829D01*
X115864415Y-106668823D01*
X115864416Y-106668824D01*
X115964189Y-106753737D01*
X116017786Y-106799352D01*
X116198969Y-106900612D01*
X116396369Y-106964751D01*
X116602468Y-106989327D01*
X116608603Y-106988855D01*
X116608605Y-106988855D01*
X116803273Y-106973876D01*
X116803277Y-106973875D01*
X116809415Y-106973403D01*
X116847222Y-106962847D01*
X117003384Y-106919246D01*
X117003388Y-106919245D01*
X117009328Y-106917586D01*
X117014832Y-106914806D01*
X117014834Y-106914805D01*
X117189091Y-106826782D01*
X117189093Y-106826781D01*
X117194592Y-106824003D01*
X117358150Y-106696217D01*
X117362176Y-106691553D01*
X117362179Y-106691550D01*
X117441182Y-106600024D01*
X117493774Y-106539096D01*
X117596296Y-106358624D01*
X117661811Y-106161677D01*
X117687825Y-105955755D01*
X117688240Y-105926060D01*
X117667986Y-105719492D01*
X117607995Y-105520792D01*
X117559273Y-105429160D01*
X117513446Y-105342970D01*
X117513444Y-105342967D01*
X117510552Y-105337528D01*
X117506662Y-105332758D01*
X117506659Y-105332754D01*
X117383263Y-105181458D01*
X117379368Y-105176682D01*
X117368313Y-105167536D01*
X117290129Y-105102857D01*
X117219442Y-105044379D01*
X117036863Y-104945659D01*
X116937724Y-104914970D01*
X116844473Y-104886104D01*
X116844470Y-104886103D01*
X116838586Y-104884282D01*
X116832461Y-104883638D01*
X116832460Y-104883638D01*
X116638293Y-104863230D01*
X116638292Y-104863230D01*
X116632165Y-104862586D01*
X116546457Y-104870386D01*
X116431599Y-104880839D01*
X116431596Y-104880840D01*
X116425460Y-104881398D01*
X116419554Y-104883136D01*
X116419550Y-104883137D01*
X116316498Y-104913467D01*
X116226346Y-104940000D01*
X116042407Y-105036161D01*
X115880648Y-105166218D01*
X115747232Y-105325218D01*
X115744268Y-105330610D01*
X115744265Y-105330614D01*
X115700589Y-105410061D01*
X115647240Y-105507103D01*
X115645379Y-105512970D01*
X115645378Y-105512972D01*
X115641026Y-105526691D01*
X115584480Y-105704946D01*
X115561344Y-105911211D01*
X114482880Y-105911211D01*
X114482880Y-103505384D01*
X114502882Y-103437263D01*
X114556538Y-103390770D01*
X114626812Y-103380666D01*
X114681150Y-103402171D01*
X114763726Y-103459991D01*
X114773227Y-103465477D01*
X114970683Y-103557551D01*
X114980979Y-103561299D01*
X115191430Y-103617690D01*
X115202217Y-103619592D01*
X115364864Y-103633822D01*
X115370329Y-103634060D01*
X116352625Y-103634060D01*
X116367864Y-103629585D01*
X116369069Y-103628195D01*
X116370740Y-103620512D01*
X116370741Y-102198060D01*
X116390743Y-102129939D01*
X116444399Y-102083446D01*
X116496741Y-102072060D01*
X116752740Y-102072061D01*
G37*
%TD.AperFunction*%
%TA.AperFunction,Conductor*%
G36*
X133639201Y-103281468D02*
G01*
X134950633Y-103318170D01*
X135018166Y-103340070D01*
X135036506Y-103355330D01*
X138300401Y-106641668D01*
X138317360Y-106662904D01*
X138897137Y-107575871D01*
X139068385Y-107845533D01*
X139088018Y-107913761D01*
X139067648Y-107981773D01*
X139013742Y-108027975D01*
X138943414Y-108037699D01*
X138908063Y-108025771D01*
X138907966Y-108026015D01*
X138903234Y-108024141D01*
X138901321Y-108023496D01*
X138900594Y-108023096D01*
X138900590Y-108023094D01*
X138893648Y-108019278D01*
X138885973Y-108017308D01*
X138885972Y-108017307D01*
X138874026Y-108014240D01*
X138855319Y-108007835D01*
X138844010Y-108002941D01*
X138844008Y-108002941D01*
X138836735Y-107999793D01*
X138828907Y-107998553D01*
X138828906Y-107998553D01*
X138793073Y-107992878D01*
X138781448Y-107990470D01*
X138744382Y-107980953D01*
X138744380Y-107980953D01*
X138738625Y-107979475D01*
X138738069Y-107979440D01*
X138718146Y-107979440D01*
X138698437Y-107977889D01*
X138678655Y-107974756D01*
X138670763Y-107975502D01*
X138635018Y-107978881D01*
X138623160Y-107979440D01*
X131392416Y-107979440D01*
X131324295Y-107959438D01*
X131303321Y-107942535D01*
X130997013Y-107636227D01*
X130989653Y-107628139D01*
X130985595Y-107621745D01*
X130936743Y-107575870D01*
X130933902Y-107573116D01*
X130913588Y-107552802D01*
X130910177Y-107550157D01*
X130901155Y-107542451D01*
X130874699Y-107517607D01*
X130868923Y-107512183D01*
X130861979Y-107508366D01*
X130861977Y-107508364D01*
X130851169Y-107502422D01*
X130834645Y-107491568D01*
X130824908Y-107484015D01*
X130824907Y-107484015D01*
X130818645Y-107479157D01*
X130811372Y-107476010D01*
X130811369Y-107476008D01*
X130790957Y-107467175D01*
X130778080Y-107461603D01*
X130767422Y-107456382D01*
X130735616Y-107438896D01*
X130735612Y-107438894D01*
X130728670Y-107435078D01*
X130720995Y-107433108D01*
X130720994Y-107433107D01*
X130709048Y-107430040D01*
X130690341Y-107423635D01*
X130679032Y-107418741D01*
X130679030Y-107418741D01*
X130671757Y-107415593D01*
X130663929Y-107414353D01*
X130663928Y-107414353D01*
X130628095Y-107408678D01*
X130616470Y-107406270D01*
X130579404Y-107396753D01*
X130579402Y-107396753D01*
X130573647Y-107395275D01*
X130573091Y-107395240D01*
X130553168Y-107395240D01*
X130533459Y-107393689D01*
X130513677Y-107390556D01*
X130505785Y-107391302D01*
X130470040Y-107394681D01*
X130458182Y-107395240D01*
X130169634Y-107395240D01*
X130101513Y-107375238D01*
X130055020Y-107321582D01*
X130044916Y-107251308D01*
X130074410Y-107186728D01*
X130080539Y-107180145D01*
X130384642Y-106876042D01*
X130392720Y-106868691D01*
X130399114Y-106864633D01*
X130444980Y-106815791D01*
X130447735Y-106812949D01*
X130468058Y-106792626D01*
X130470701Y-106789219D01*
X130478410Y-106780192D01*
X130503253Y-106753737D01*
X130508677Y-106747961D01*
X130512496Y-106741015D01*
X130518438Y-106730207D01*
X130529292Y-106713683D01*
X130536845Y-106703946D01*
X130536845Y-106703945D01*
X130541703Y-106697683D01*
X130559262Y-106657107D01*
X130564483Y-106646450D01*
X130567112Y-106641668D01*
X130585782Y-106607708D01*
X130587755Y-106600024D01*
X130590819Y-106588092D01*
X130597223Y-106569388D01*
X130602119Y-106558075D01*
X130602121Y-106558068D01*
X130605268Y-106550796D01*
X130612185Y-106507125D01*
X130614592Y-106495504D01*
X130624107Y-106458442D01*
X130624107Y-106458441D01*
X130625585Y-106452685D01*
X130625620Y-106452129D01*
X130625620Y-106432208D01*
X130627171Y-106412498D01*
X130629064Y-106400546D01*
X130629064Y-106400545D01*
X130630304Y-106392716D01*
X130626179Y-106349077D01*
X130625620Y-106337220D01*
X130625620Y-104405969D01*
X130645622Y-104337848D01*
X130699278Y-104291355D01*
X130735676Y-104281416D01*
X130737847Y-104281416D01*
X130924647Y-104241710D01*
X130930678Y-104239025D01*
X131093080Y-104166719D01*
X131093082Y-104166718D01*
X131099110Y-104164034D01*
X131184614Y-104101912D01*
X131248267Y-104055666D01*
X131248269Y-104055664D01*
X131253611Y-104051783D01*
X131258033Y-104046872D01*
X131376978Y-103914770D01*
X131376979Y-103914769D01*
X131381397Y-103909862D01*
X131439671Y-103808928D01*
X131473580Y-103750197D01*
X131473581Y-103750196D01*
X131476884Y-103744474D01*
X131517162Y-103620512D01*
X131533858Y-103569126D01*
X131533858Y-103569125D01*
X131535898Y-103562847D01*
X131553618Y-103394248D01*
X131580631Y-103328592D01*
X131638853Y-103287962D01*
X131678928Y-103281419D01*
X133635676Y-103281419D01*
X133639201Y-103281468D01*
G37*
%TD.AperFunction*%
%TD*%
%TA.AperFunction,Conductor*%
%TO.N,+3V3*%
G36*
X146366537Y-101024372D02*
G01*
X146413030Y-101078028D01*
X146424416Y-101130152D01*
X146444342Y-112658369D01*
X146424458Y-112726524D01*
X146370882Y-112773110D01*
X146300626Y-112783335D01*
X146235994Y-112753954D01*
X146229247Y-112747682D01*
X135736970Y-102255406D01*
X135729610Y-102247318D01*
X135725552Y-102240924D01*
X135676700Y-102195049D01*
X135673859Y-102192295D01*
X135653545Y-102171981D01*
X135650134Y-102169336D01*
X135641112Y-102161630D01*
X135614656Y-102136786D01*
X135608880Y-102131362D01*
X135601936Y-102127545D01*
X135601934Y-102127543D01*
X135591126Y-102121601D01*
X135574602Y-102110747D01*
X135564865Y-102103194D01*
X135564864Y-102103194D01*
X135558602Y-102098336D01*
X135551329Y-102095189D01*
X135551326Y-102095187D01*
X135530914Y-102086354D01*
X135518037Y-102080782D01*
X135507379Y-102075561D01*
X135475573Y-102058075D01*
X135475569Y-102058073D01*
X135468627Y-102054257D01*
X135460952Y-102052287D01*
X135460951Y-102052286D01*
X135449005Y-102049219D01*
X135430298Y-102042814D01*
X135418989Y-102037920D01*
X135418987Y-102037920D01*
X135411714Y-102034772D01*
X135403886Y-102033532D01*
X135403885Y-102033532D01*
X135368052Y-102027857D01*
X135356427Y-102025449D01*
X135319361Y-102015932D01*
X135319359Y-102015932D01*
X135313604Y-102014454D01*
X135313048Y-102014419D01*
X135293125Y-102014419D01*
X135273416Y-102012868D01*
X135253634Y-102009735D01*
X135245742Y-102010481D01*
X135209997Y-102013860D01*
X135198139Y-102014419D01*
X130372742Y-102014419D01*
X130361838Y-102013905D01*
X130354447Y-102012253D01*
X130346521Y-102012502D01*
X130346520Y-102012502D01*
X130287493Y-102014357D01*
X130283535Y-102014419D01*
X130254781Y-102014419D01*
X130250514Y-102014958D01*
X130238672Y-102015891D01*
X130207024Y-102016886D01*
X130202399Y-102017031D01*
X130194476Y-102017280D01*
X130175026Y-102022931D01*
X130155664Y-102026941D01*
X130135571Y-102029479D01*
X130101890Y-102042814D01*
X130094467Y-102045753D01*
X130083237Y-102049598D01*
X130048393Y-102059721D01*
X130048391Y-102059722D01*
X130040780Y-102061933D01*
X130025426Y-102071013D01*
X130023348Y-102072242D01*
X130005595Y-102080939D01*
X129986759Y-102088397D01*
X129973079Y-102098336D01*
X129950985Y-102114388D01*
X129941066Y-102120903D01*
X129908117Y-102140390D01*
X129908114Y-102140392D01*
X129903018Y-102143406D01*
X129902600Y-102143774D01*
X129888517Y-102157857D01*
X129873492Y-102170691D01*
X129857276Y-102182473D01*
X129829330Y-102216254D01*
X129821340Y-102225034D01*
X129149588Y-102896786D01*
X129141510Y-102904137D01*
X129135116Y-102908195D01*
X129129689Y-102913974D01*
X129129688Y-102913975D01*
X129089258Y-102957029D01*
X129086503Y-102959871D01*
X129066172Y-102980202D01*
X129063738Y-102983339D01*
X129063736Y-102983342D01*
X129063513Y-102983629D01*
X129055817Y-102992639D01*
X129032361Y-103017618D01*
X129025554Y-103024867D01*
X129021738Y-103031808D01*
X129021736Y-103031811D01*
X129015798Y-103042613D01*
X129004944Y-103059136D01*
X128997388Y-103068878D01*
X128992527Y-103075145D01*
X128989379Y-103082420D01*
X128974969Y-103115719D01*
X128969747Y-103126379D01*
X128948449Y-103165120D01*
X128943411Y-103184740D01*
X128937012Y-103203432D01*
X128928963Y-103222033D01*
X128927723Y-103229860D01*
X128927723Y-103229861D01*
X128922047Y-103265699D01*
X128919640Y-103277322D01*
X128908646Y-103320143D01*
X128908611Y-103320699D01*
X128908611Y-103340615D01*
X128907060Y-103360325D01*
X128903926Y-103380113D01*
X128904672Y-103388004D01*
X128908052Y-103423760D01*
X128908611Y-103435618D01*
X128908610Y-105105134D01*
X128888608Y-105173255D01*
X128871706Y-105194229D01*
X128692780Y-105373156D01*
X128630468Y-105407181D01*
X128603684Y-105410061D01*
X126541600Y-105410061D01*
X126473479Y-105390059D01*
X126426986Y-105336403D01*
X126415602Y-105284723D01*
X126415356Y-105237885D01*
X126410720Y-104355900D01*
X126240797Y-104356465D01*
X125999337Y-104357268D01*
X125951407Y-104347383D01*
X125949345Y-104346185D01*
X125942335Y-104344062D01*
X125942333Y-104344061D01*
X125786295Y-104296802D01*
X125786294Y-104296802D01*
X125780104Y-104294927D01*
X125773664Y-104294352D01*
X125773663Y-104294352D01*
X125703715Y-104288109D01*
X125703709Y-104288109D01*
X125700922Y-104287860D01*
X125195931Y-104287860D01*
X125169734Y-104285107D01*
X125047084Y-104259036D01*
X125047079Y-104259036D01*
X125040627Y-104257664D01*
X124849653Y-104257664D01*
X124843201Y-104259036D01*
X124843196Y-104259036D01*
X124756253Y-104277517D01*
X124662853Y-104297370D01*
X124656823Y-104300055D01*
X124656822Y-104300055D01*
X124541513Y-104351394D01*
X124490683Y-104362286D01*
X124119640Y-104363520D01*
X124119666Y-104368837D01*
X124113612Y-104370637D01*
X124069003Y-104399515D01*
X123998007Y-104399752D01*
X123969816Y-104387691D01*
X123905478Y-104350320D01*
X123892146Y-104344523D01*
X123736200Y-104297292D01*
X123723577Y-104294844D01*
X123653716Y-104288609D01*
X123648121Y-104288360D01*
X123542015Y-104288360D01*
X123526776Y-104292835D01*
X123525571Y-104294225D01*
X123523900Y-104301908D01*
X123523900Y-105624360D01*
X123503898Y-105692481D01*
X123450242Y-105738974D01*
X123397900Y-105750360D01*
X122205015Y-105750360D01*
X122189776Y-105754835D01*
X122187526Y-105757431D01*
X122127800Y-105795814D01*
X122093179Y-105800915D01*
X121794439Y-105802995D01*
X121380797Y-105805874D01*
X121312540Y-105786347D01*
X121290932Y-105769078D01*
X120513189Y-104993139D01*
X122186900Y-104993139D01*
X122186900Y-105224245D01*
X122191375Y-105239484D01*
X122192765Y-105240689D01*
X122200448Y-105242360D01*
X122997785Y-105242360D01*
X123013024Y-105237885D01*
X123014229Y-105236495D01*
X123015900Y-105228812D01*
X123015900Y-104306475D01*
X123011425Y-104291236D01*
X123010035Y-104290031D01*
X123002352Y-104288360D01*
X122905677Y-104288360D01*
X122898376Y-104288784D01*
X122776645Y-104302977D01*
X122762490Y-104306323D01*
X122610139Y-104361623D01*
X122597140Y-104368133D01*
X122461594Y-104457001D01*
X122450442Y-104466325D01*
X122338978Y-104583989D01*
X122330265Y-104595636D01*
X122248857Y-104735789D01*
X122243063Y-104749114D01*
X122195832Y-104905060D01*
X122193384Y-104917683D01*
X122187149Y-104987544D01*
X122186900Y-104993139D01*
X120513189Y-104993139D01*
X120270448Y-104750962D01*
X120236351Y-104688689D01*
X120233440Y-104661763D01*
X120233440Y-101130370D01*
X120253442Y-101062249D01*
X120307098Y-101015756D01*
X120359440Y-101004370D01*
X146298416Y-101004370D01*
X146366537Y-101024372D01*
G37*
%TD.AperFunction*%
%TD*%
M02*
