M48
; DRILL file {KiCad (5.99.0-7212-gef75ce9035)} date 04/24/21 18:59:02
; FORMAT={-:-/ absolute / inch / decimal}
; #@! TF.CreationDate,2021-04-24T18:59:02-07:00
; #@! TF.GenerationSoftware,Kicad,Pcbnew,(5.99.0-7212-gef75ce9035)
FMAT,2
INCH
T1C0.0157
T2C0.0394
T3C0.0866
T4C0.0394
T5C0.0433
%
G90
G05
T1
X4.537Y-4.1166
X4.537Y-4.2589
X4.5581Y-4.4115
X4.5894Y-4.2584
X4.7548Y-4.4733
X4.7602Y-4.0173
X4.8177Y-4.2584
X4.8674Y-4.3389
X4.9191Y-4.1404
X4.997Y-4.1464
X5.0597Y-4.2129
X5.0713Y-4.2531
X5.0834Y-4.3318
X5.1434Y-4.0698
X5.1578Y-4.2246
X5.1743Y-4.3321
X5.1777Y-4.4998
X5.2389Y-3.9996
X5.244Y-4.2329
X5.3037Y-4.3727
X5.3828Y-4.2095
X5.5605Y-4.4469
X5.6521Y-4.2902
X5.6638Y-4.0416
X5.6964Y-4.009
X5.9722Y-4.5059
X6.1481Y-4.0937
T2
X5.5871Y-4.5042
X5.6871Y-4.5042
X5.7871Y-4.5042
T3
X6.2564Y-4.0498
X6.1435Y-4.4645
T4
X6.1566Y-4.259
X6.3928Y-4.259
T5
X4.5915Y-4.1703
X4.5915Y-4.3475
T2
G00X4.6211Y-4.0286
M15
G01X4.562Y-4.0286
M16
G05
G00X4.6211Y-4.4892
M15
G01X4.562Y-4.4892
M16
G05
T0
M30
